<svg xmlns="http://www.w3.org/2000/svg" viewBox="0 0 87 90"><defs><style>.cls-1{fill:#7ed958;}.cls-2{fill:#17214e;}.cls-3{fill:#fff;}</style></defs><g id="Calque_2" data-name="Calque 2"><g id="Multi-stakeholder_Governance_Scheme_Page_1" data-name="Multi-stakeholder Governance Scheme Page 1"><rect class="cls-1" x="-2.31" y="42.55" width="88.4" height="3.04" transform="translate(43.42 -16.72) rotate(44.99)"/><rect class="cls-2" x="-1.5" y="41.69" width="88.4" height="3.04" transform="translate(103.45 43.59) rotate(135.01)"/><ellipse class="cls-1" cx="43.72" cy="45.72" rx="27.72" ry="27.71"/><ellipse class="cls-1" cx="9.73" cy="9.72" rx="9.73" ry="9.72"/><ellipse class="cls-1" cx="77.27" cy="80.28" rx="9.73" ry="9.72"/><ellipse class="cls-2" cx="9.73" cy="80.28" rx="9.73" ry="9.72"/><ellipse class="cls-2" cx="77.27" cy="9.72" rx="9.73" ry="9.72"/><path class="cls-2" d="M44,46.54a5,5,0,1,0-5-5A5,5,0,0,0,44,46.54Zm2.13.34H41.85a6.41,6.41,0,0,0-6.41,6.41v5.27l.36.12a29.25,29.25,0,0,0,8.72,1.4,17.82,17.82,0,0,0,7.61-1.43l.33-.17h0V53.29A6.42,6.42,0,0,0,46.1,46.88Z"/><path class="cls-3" d="M33.43,41.3a5.08,5.08,0,0,0,2.67-.77,6.17,6.17,0,0,1,2.33-4c0-.09,0-.18,0-.28a5,5,0,1,0-5,5Z"/><path class="cls-3" d="M37.93,45.94A6.19,6.19,0,0,1,36,41.66l-.47,0H31.31a6.42,6.42,0,0,0-6.42,6.41v5.19l0,.08.36.12a30,30,0,0,0,7.22,1.35V53.22A7.6,7.6,0,0,1,37.93,45.94Z"/><path class="cls-3" d="M48.9,36.2a6.18,6.18,0,0,1,2.88,4.61A5,5,0,1,0,48.9,36.2Z"/><path class="cls-3" d="M56,41.62H51.81a6.18,6.18,0,0,1-1.91,4.3,7.61,7.61,0,0,1,5.45,7.29v1.6a17.23,17.23,0,0,0,6.72-1.41l.33-.17h0V48A6.42,6.42,0,0,0,56,41.62Z"/></g></g></svg>