<svg xmlns="http://www.w3.org/2000/svg" viewBox="0 0 174 180"><defs><style>.cls-1{fill:#7ed958;}.cls-2{fill:#e6f7de;}.cls-3{fill:#17214e;}.cls-4{fill:#fff;}</style></defs><g id="Calque_2" data-name="Calque 2"><g id="Subpage_2:_Developing_a_multi-stakeholder_data_cooperation_for_DS4SSCC" data-name="Subpage 2: Developing a multi-stakeholder data cooperation for DS4SSCC"><rect class="cls-1" x="-4.61" y="85.1" width="176.79" height="6.07" transform="translate(86.83 -33.43) rotate(44.99)"/><rect class="cls-2" x="-3" y="83.39" width="176.79" height="6.07" transform="translate(206.9 87.17) rotate(135.01)"/><ellipse class="cls-1" cx="87.45" cy="91.44" rx="55.45" ry="55.42"/><ellipse class="cls-1" cx="19.46" cy="19.45" rx="19.46" ry="19.45"/><ellipse class="cls-1" cx="154.54" cy="160.55" rx="19.46" ry="19.45"/><ellipse class="cls-2" cx="19.46" cy="160.55" rx="19.46" ry="19.45"/><ellipse class="cls-2" cx="154.54" cy="19.45" rx="19.46" ry="19.45"/><path class="cls-3" d="M88,93.07a10,10,0,1,0-10-10A10,10,0,0,0,88,93.07Zm4.25.69H83.7a12.84,12.84,0,0,0-12.83,12.82V117l0,.17.72.22a58.31,58.31,0,0,0,17.43,2.81c9.43,0,14.89-2.68,15.23-2.86L105,117H105V106.58A12.83,12.83,0,0,0,92.2,93.76Z"/><path class="cls-4" d="M66.87,82.6a10,10,0,0,0,5.32-1.55,12.38,12.38,0,0,1,4.66-7.9c0-.19,0-.37,0-.56a10,10,0,1,0-10,10Z"/><path class="cls-4" d="M75.86,91.87a12.34,12.34,0,0,1-3.81-8.54c-.31,0-.62,0-.94,0h-8.5A12.83,12.83,0,0,0,49.79,96.1v10.39l0,.16.71.22A60.49,60.49,0,0,0,65,109.59v-3.14A15.25,15.25,0,0,1,75.86,91.87Z"/><path class="cls-4" d="M97.79,72.4a12.4,12.4,0,0,1,5.78,9.22,10,10,0,1,0-5.78-9.22Z"/><path class="cls-4" d="M112.05,83.25h-8.43a12.31,12.31,0,0,1-3.81,8.59,15.24,15.24,0,0,1,10.88,14.58v3.2c8.33-.31,13.13-2.66,13.45-2.82l.66-.34h.08V96.07A12.84,12.84,0,0,0,112.05,83.25Z"/></g></g></svg>