<svg xmlns="http://www.w3.org/2000/svg" viewBox="0 0 34 22"><defs><style>.cls-1{fill:#c8414b;}.cls-2{fill:#ffd250;}.cls-3{fill:#f5f5f5;}.cls-4{fill:#fab446;}.cls-5{fill:#ffb441;}.cls-6{fill:#5064aa;}.cls-7{fill:#ffa0d2;}</style></defs><g id="Calque_2" data-name="Calque 2"><g id="use_case" data-name="use case"><path class="cls-1" d="M2.53,22H31.47A2.54,2.54,0,0,0,34,19.45V17.11H0v2.34A2.54,2.54,0,0,0,2.53,22Z"/><path class="cls-1" d="M31.47,0H2.53A2.54,2.54,0,0,0,0,2.55V4.89H34V2.55A2.54,2.54,0,0,0,31.47,0Z"/><rect class="cls-2" y="4.89" width="34" height="13.04"/><path class="cls-1" d="M14.47,10.79,15,8.55a.33.33,0,0,0-.32-.4H14.3a.32.32,0,0,0-.32.4Z"/><rect class="cls-3" x="13.76" y="9.78" width="0.81" height="4.89"/><rect class="cls-4" x="13.76" y="8.96" width="1.62" height="0.81"/><rect class="cls-1" x="12.14" y="11.41" width="3.24" height="0.81"/><polygon class="cls-1" points="15.38 13.45 13.76 12.91 13.76 12.37 15.38 12.91 15.38 13.45"/><path class="cls-1" d="M5.73,10.79l.49-2.24a.32.32,0,0,0-.32-.4H5.55a.33.33,0,0,0-.32.4Z"/><path class="cls-3" d="M7.87,9.78a.58.58,0,0,0-.58.58v3.82c0,.71.64,2.05,2.83,2.05S13,14.89,13,14.18V10.36a.58.58,0,0,0-.58-.58Z"/><path class="cls-1" d="M10.52,12.22H7.29V10c-.1-.32.16-.58.48-1h2.75Z"/><path class="cls-1" d="M9.71,12.22H13v1.57a1.36,1.36,0,0,1-1.39,1.46h0a2.23,2.23,0,0,1-1.85-1.46Z"/><path class="cls-4" d="M7.29,12.22h3.23v1.57a2.31,2.31,0,0,1-1.88,1.46h0a1.32,1.32,0,0,1-1.35-1.46Z"/><path class="cls-1" d="M9.71,15V12.22H8.9v3A6.1,6.1,0,0,0,9.71,15Z"/><path class="cls-1" d="M7.29,15.23v-3H8.1V15C7.94,15.08,8.13,15.18,7.29,15.23Z"/><rect class="cls-5" x="8.1" y="11.41" width="1.62" height="0.81"/><rect class="cls-4" x="8.1" y="9.78" width="1.62" height="0.81"/><rect class="cls-4" x="8.1" y="10.59" width="0.81" height="0.81"/><rect class="cls-3" x="5.67" y="9.78" width="0.81" height="4.89"/><rect class="cls-4" x="4.86" y="14.67" width="1.62" height="0.81"/><rect class="cls-4" x="4.86" y="8.96" width="1.62" height="0.81"/><rect class="cls-6" x="4.86" y="15.48" width="2.43" height="0.81"/><rect class="cls-4" x="13.76" y="14.67" width="1.62" height="0.81"/><rect class="cls-6" x="12.95" y="15.48" width="2.43" height="0.81"/><rect class="cls-4" x="8.1" y="8.96" width="3.24" height="0.81"/><rect class="cls-5" x="9.71" y="7.33" width="0.81" height="1.63"/><path class="cls-3" d="M9.52,7.92A.88.88,0,1,1,10.39,7,.88.88,0,0,1,9.52,7.92Zm0-1.17A.29.29,0,1,0,9.81,7,.29.29,0,0,0,9.52,6.75Z"/><path class="cls-3" d="M10.68,7.92A.88.88,0,1,1,11.56,7,.87.87,0,0,1,10.68,7.92Zm0-1.17A.29.29,0,1,0,11,7,.29.29,0,0,0,10.68,6.75Z"/><path class="cls-3" d="M11.85,8.51a.88.88,0,1,1,0-1.76.88.88,0,0,1,0,1.76Zm0-1.18a.3.3,0,0,0-.29.3.29.29,0,1,0,.58,0A.3.3,0,0,0,11.85,7.33Z"/><path class="cls-3" d="M8.35,8.51a.88.88,0,1,1,.88-.88A.88.88,0,0,1,8.35,8.51Zm0-1.18a.3.3,0,0,0-.29.3.29.29,0,1,0,.58,0A.3.3,0,0,0,8.35,7.33Z"/><path class="cls-4" d="M12.14,13.85v-.06c-.29.16-.42.29-.58.29a.22.22,0,0,1-.23-.29v.06h.81m0-.81H10.52v.88a.81.81,0,1,0,1.62,0V13Z"/><path class="cls-7" d="M11.56,11.73h0c-.32,0-.59-.26-.23-.58v-.59c-.36-.32-.09-.59.23-.59h0a.59.59,0,0,1,.58.59v.59A.58.58,0,0,1,11.56,11.73Z"/><ellipse class="cls-6" cx="10.1" cy="12.32" rx="0.87" ry="0.88"/><rect class="cls-4" x="9.71" y="5.7" width="0.81" height="1.63"/><path class="cls-1" d="M8.35,9l-.58-.58L8.11,8a2.81,2.81,0,0,1,2-.83h0a2.81,2.81,0,0,1,2,.83l.34.35L11.85,9Z"/><circle class="cls-2" cx="10.1" cy="8.21" r="0.29"/><circle class="cls-2" cx="8.93" cy="8.21" r="0.29"/><circle class="cls-2" cx="11.27" cy="8.21" r="0.29"/><rect class="cls-1" x="4.86" y="11.41" width="3.24" height="0.81"/><polygon class="cls-1" points="4.86 13.45 6.48 12.91 6.48 12.37 4.86 12.91 4.86 13.45"/></g></g></svg>