<svg xmlns="http://www.w3.org/2000/svg" viewBox="0 0 34 22"><defs><style>.cls-1{fill:#fff;}.cls-2{fill:#41479b;}</style></defs><g id="Calque_2" data-name="Calque 2"><g id="use_case" data-name="use case"><path class="cls-1" d="M31.45,22H2.55A2.51,2.51,0,0,1,0,19.52v-17A2.51,2.51,0,0,1,2.55,0h28.9A2.51,2.51,0,0,1,34,2.48v17A2.51,2.51,0,0,1,31.45,22Z"/><polygon class="cls-2" points="34 9.17 14.17 9.17 14.17 0 10.39 0 10.39 9.17 0 9.17 0 12.83 10.39 12.83 10.39 22 14.17 22 14.17 12.83 34 12.83 34 9.17"/></g></g></svg>