<svg xmlns="http://www.w3.org/2000/svg" viewBox="0 0 34 22"><defs><style>.cls-1{fill:red;}.cls-2{fill:#338000;}.cls-3{fill:#ff0;}.cls-4{fill:#fff;}.cls-5{fill:#003380;}</style></defs><g id="Calque_2" data-name="Calque 2"><g id="use_case" data-name="use case"><g id="layer1"><g id="g224886"><g id="g105783"><path id="path28038" class="cls-1" d="M3.42,0A3.51,3.51,0,0,0,0,3.59H0V18.46A3.48,3.48,0,0,0,3.42,22H30.58A3.51,3.51,0,0,0,34,18.41h0V3.54A3.48,3.48,0,0,0,30.58,0H3.42Z"/><path id="path28044" class="cls-2" d="M3.44,0A3.5,3.5,0,0,0,0,3.56v15A3.39,3.39,0,0,0,3.33,22h9.42V0Z"/><g id="g105768"><path id="path104039" class="cls-3" d="M18.1,11.27a4.84,4.84,0,0,1-4.76,4.92,4.83,4.83,0,0,1-4.75-4.92,4.84,4.84,0,0,1,4.75-4.93A4.85,4.85,0,0,1,18.1,11.27Z"/><path id="path54712" class="cls-3" d="M10.63,5.5v8.8"/><g id="g105742"><path id="path104937" class="cls-1" d="M11.54,7.7a1,1,0,0,0-.91,1V11.4a2.7,2.7,0,0,0,2.47,2.9h0a2.84,2.84,0,0,0,2.8-2.85V8.71a1,1,0,0,0-.95-1H11.54Z"/><path id="path33465" class="cls-4" d="M12,8.8h3.73a.27.27,0,0,1,.26.27v2.64a2.17,2.17,0,0,1-2.27,2,2,2,0,0,1-2-2V9.07A.26.26,0,0,1,12,8.8Z"/><path id="path33473" class="cls-5" d="M12.75,8.8h1.06V10a.53.53,0,0,1-.5.48c-.23,0-.41-.23-.56-.48Z"/><path id="path42272" class="cls-5" d="M11.69,11h1.06v.51c-.27.26-.48.47-.73.47a.36.36,0,0,1-.33-.47Z"/><path id="path42288" class="cls-5" d="M12.75,11h1.06v.51a.53.53,0,0,1-.5.47c-.23,0-.41-.23-.56-.47Z"/><path id="path42304" class="cls-5" d="M13.81,11h1.07v.51c.18.26,0,.47-.28.47s-.41-.23-.79-.47Z"/><path id="path42320" class="cls-5" d="M12.75,12.1h1.06V13a.53.53,0,0,1-.5.47c-.23,0-.41-.23-.56-.47Z"/></g></g></g></g></g></g></g></svg>