<svg xmlns="http://www.w3.org/2000/svg" viewBox="0 0 34 22"><defs><style>.cls-1{fill:#fff;}.cls-2{fill:#ff4b55;}.cls-3{fill:#41479b;}.cls-4{fill:#f5f5f5;}.cls-5{fill:#ffe15a;}.cls-6{fill:#ff1722;}</style></defs><g id="Calque_2" data-name="Calque 2"><g id="use_case" data-name="use case"><path class="cls-1" d="M31.45,0H2.55A2.51,2.51,0,0,0,0,2.48V7H34V2.48A2.51,2.51,0,0,0,31.45,0Z"/><path class="cls-2" d="M2.55,22h28.9A2.51,2.51,0,0,0,34,19.52V15H0v4.52A2.51,2.51,0,0,0,2.55,22Z"/><rect class="cls-3" y="8" width="34" height="7"/><path class="cls-3" d="M11.37,4.66s-.12,3.66-.64,4.68a3.53,3.53,0,0,1-2.3,2,3.52,3.52,0,0,1-2.29-2c-.53-1-.65-4.68-.65-4.68A7.33,7.33,0,0,1,11.37,4.66Z"/><path class="cls-4" d="M9.28,9.73A.4.4,0,0,0,9,9.65a.43.43,0,0,0-.24.08.68.68,0,0,1-.74,0,.4.4,0,0,0-.48,0,.59.59,0,0,1-.34.11,2.6,2.6,0,0,0,1.19.8,2.55,2.55,0,0,0,1.2-.8A.6.6,0,0,1,9.28,9.73Z"/><path class="cls-4" d="M7,9.06a.4.4,0,0,0,.24.07.43.43,0,0,0,.24-.07.63.63,0,0,1,.74,0,.45.45,0,0,0,.48,0A.56.56,0,0,1,9,8.94a.68.68,0,0,1,.38.12.4.4,0,0,0,.24.07.43.43,0,0,0,.24-.07A.52.52,0,0,1,10.19,9a3.12,3.12,0,0,0,.1-.32L9.41,7.21l-.32.64L8.43,6.58,7.78,7.85l-.33-.64L6.58,8.63a1.74,1.74,0,0,0,.1.32A.55.55,0,0,1,7,9.06Z"/><path class="cls-4" d="M10,9.26a.62.62,0,0,1-.37.11.69.69,0,0,1-.38-.11A.35.35,0,0,0,9,9.18a.36.36,0,0,0-.24.08.68.68,0,0,1-.74,0,.4.4,0,0,0-.48,0,.68.68,0,0,1-.74,0h0c.07.12.13.22.2.32a.41.41,0,0,0,.42,0,.68.68,0,0,1,.74,0,.4.4,0,0,0,.48,0A.62.62,0,0,1,9,9.42a.69.69,0,0,1,.38.11.35.35,0,0,0,.24.08.32.32,0,0,0,.18,0A2.81,2.81,0,0,0,10,9.25Z"/><path class="cls-5" d="M8.45,5.49l.05.18.19,0s0,0,0,0l-.14.14.14.14s0,0,0,0l-.19,0-.05.18h0l-.06-.18L8.17,6s0,0,0,0l.13-.14-.13-.14s0,0,0,0l.19,0,.06-.18Z"/><path class="cls-5" d="M7.51,4.62l0,.18.2,0a0,0,0,0,1,0,0l-.13.14.13.13a0,0,0,0,1,0,0l-.2,0,0,.19a0,0,0,0,1,0,0L7.42,5l-.19,0a0,0,0,0,1,0,0l.13-.13-.13-.14a0,0,0,0,1,0,0l.19,0,.06-.18S7.5,4.6,7.51,4.62Z"/><path class="cls-5" d="M9.39,4.62l.06.18.19,0a0,0,0,0,1,0,0l-.13.14.13.13a0,0,0,0,1,0,0L9.45,5l-.06.19s0,0,0,0L9.31,5l-.19,0a0,0,0,0,1,0,0l.13-.13-.13-.14a0,0,0,0,1,0,0l.19,0,.06-.18S9.39,4.6,9.39,4.62Z"/><path class="cls-6" d="M11,4.52c0,.1,0,.2,0,.31a16.73,16.73,0,0,1-.61,4.39,3.09,3.09,0,0,1-2,1.79,3.14,3.14,0,0,1-2-1.79,17.06,17.06,0,0,1-.6-4.39V4.52l-.33.14c0,.22.06,1.68.23,3a6.36,6.36,0,0,0,.41,1.72,3.52,3.52,0,0,0,2.29,2,3.53,3.53,0,0,0,2.3-2,6.36,6.36,0,0,0,.41-1.72c.17-1.28.22-2.74.23-3Z"/></g></g></svg>