<svg xmlns="http://www.w3.org/2000/svg" viewBox="0 0 34.33 22"><defs><style>.cls-1{fill:#4173cd;}.cls-2{fill:#ffe15a;}</style></defs><g id="Calque_2" data-name="Calque 2"><g id="use_case" data-name="use case"><path class="cls-1" d="M31.82,0h-29A2.54,2.54,0,0,0,.33,2.56V19.44A2.54,2.54,0,0,0,2.85,22h29a2.53,2.53,0,0,0,2.51-2.56V2.56A2.53,2.53,0,0,0,31.82,0Z"/><polygon class="cls-2" points="34 9 13.81 9 13.81 0 10.63 0 10.63 9 0 9 0 12 10.63 12 10.63 22 13.81 22 13.81 12 34 12 34 9"/></g></g></svg>