<svg xmlns="http://www.w3.org/2000/svg" viewBox="0 0 65 90"><defs><style>.cls-1{fill:#fff;}.cls-2{fill:#7ed958;}.cls-3{fill:#17214e;}</style></defs><g id="Calque_2" data-name="Calque 2"><g id="Multi-stakeholder_Governance_Scheme_Page_1" data-name="Multi-stakeholder Governance Scheme Page 1"><path class="cls-1" d="M58.79,86l.1-.08A4.19,4.19,0,0,0,62,87.21c-9.86.06-42.92.24-54.52.32h0c-.28,0-.55,0-3.52-1.49Z"/><path class="cls-1" d="M58.41,81.05a4.14,4.14,0,0,0-.58,2.29h-55A4,4,0,0,1,3.62,81H58.41Z"/><path class="cls-1" d="M2.86,83.34h55A4.13,4.13,0,0,0,58.89,86l-.1.08H4A3.92,3.92,0,0,1,2.86,83.34Z"/><path class="cls-1" d="M7.5,79.14H62a4,4,0,0,0-3.63,1.91H3.62A4.79,4.79,0,0,1,7.5,79.14Z"/><path class="cls-2" d="M6.89,1.7H63a1.94,1.94,0,0,1,2,1.84V77.29a2,2,0,0,1-2,1.85H8.12a4.37,4.37,0,0,0-4.57,4.14h0a4.38,4.38,0,0,0,4.6,4.15c12.08-.09,47.68-.28,55.25-.33A1.53,1.53,0,0,1,65,88.55h0A1.53,1.53,0,0,1,63.4,90H6.72C3,90,0,87.27,0,83.91V7.79C0,4.43,3,1.7,6.72,1.7H63a1.94,1.94,0,0,1,2,1.84"/><rect class="cls-1" x="30.88" y="13.51" width="34.12" height="10.75"/><rect class="cls-1" x="30.88" y="26.45" width="34.12" height="2.52"/><path class="cls-3" d="M20.84,30l-5.18-4.08L10.49,30V1.64c0-.9,1-1.64,2.34-1.64H18.5c1.29,0,2.34.74,2.34,1.64Z"/><rect class="cls-3" x="10.49" y="13.16" width="10.35" height="4.62"/><path class="cls-3" d="M37.78,49.73a5.38,5.38,0,0,1,2.49,4,4.33,4.33,0,1,0-2.49-4ZM33.72,58.6a4.33,4.33,0,1,0-4.32-4.33A4.33,4.33,0,0,0,33.72,58.6Zm1.84.3H31.89a5.55,5.55,0,0,0-5.54,5.55V69l.31.1a25.25,25.25,0,0,0,7.53,1.22,15.54,15.54,0,0,0,6.58-1.24l.29-.15h0V64.45A5.55,5.55,0,0,0,35.56,58.9Zm8.37-4.47H40.29a5.37,5.37,0,0,1-1.64,3.72,6.59,6.59,0,0,1,4.7,6.3v1.39a14.78,14.78,0,0,0,5.8-1.22l.29-.15h0V60A5.54,5.54,0,0,0,43.93,54.43Zm-19-.3a4.33,4.33,0,0,0,2.3-.67,5.38,5.38,0,0,1,2-3.42c0-.08,0-.16,0-.24a4.33,4.33,0,1,0-4.32,4.33Zm3.88,4a5.34,5.34,0,0,1-1.64-3.7l-.41,0H23.08A5.55,5.55,0,0,0,17.54,60v4.57l.31.1a26.21,26.21,0,0,0,6.24,1.17V64.45A6.59,6.59,0,0,1,28.8,58.15Z"/></g></g></svg>