<svg xmlns="http://www.w3.org/2000/svg" viewBox="0 0 135 180"><defs><style>.cls-1{fill:#fff;}.cls-2{fill:#7ed958;}.cls-3{fill:#e6f7de;}.cls-4{fill:#17214e;}</style></defs><g id="Calque_2" data-name="Calque 2"><g id="Subpage_1:_DS4SSCC_Code_of_Conduct" data-name="Subpage 1: DS4SSCC Code of Conduct"><path class="cls-1" d="M122.1,172.08l.21-.16a8.83,8.83,0,0,0,6.54,2.5c-20.48.13-89.13.47-113.23.64h-.1c-.58,0-1.14,0-7.31-3Z"/><path class="cls-1" d="M121.31,162.1a8,8,0,0,0-1.19,4.57H6a7.7,7.7,0,0,1,1.56-4.59H121.26Z"/><path class="cls-1" d="M6,166.67H120.12a8,8,0,0,0,2.19,5.25l-.21.16H8.21A7.7,7.7,0,0,1,6,166.67Z"/><path class="cls-1" d="M15.57,158.29H128.85c-3.69,0-6.19,1.61-7.54,3.81l0,0H7.51A10.09,10.09,0,0,1,15.57,158.29Z"/><path class="cls-2" d="M14.31,3.39H130.78A4,4,0,0,1,135,7.08V154.59a4,4,0,0,1-4.22,3.68H16.87c-5.24,0-9.49,3.72-9.49,8.29h0c0,4.61,4.28,8.33,9.55,8.29,25.1-.16,99-.56,114.74-.65a3.12,3.12,0,0,1,3.33,2.9h0a3.13,3.13,0,0,1-3.32,2.9H14C6.24,180,0,174.54,0,167.81V15.58C0,8.85,6.24,3.39,14,3.39H130.78A4,4,0,0,1,135,7.08"/><rect class="cls-3" x="64.13" y="27.02" width="70.87" height="21.51"/><rect class="cls-3" x="64.13" y="52.89" width="70.87" height="5.04"/><path class="cls-3" d="M38.42,0H26.64C24,0,21.79,1.47,21.79,3.28V60l10.74-8.17L43.27,60V3.28C43.27,1.47,41.1,0,38.42,0Z"/><path class="cls-4" d="M74.8,98.08a9,9,0,0,1,4.27,6.68,7.23,7.23,0,1,0-4.27-6.68Zm-6.93,14.86a7.26,7.26,0,1,0-7.4-7.25A7.33,7.33,0,0,0,67.87,112.94Zm3.14.5H64.73a9.4,9.4,0,0,0-9.47,9.3v7.53l0,.12.53.16a43.78,43.78,0,0,0,12.88,2c7,0,11-2,11.24-2.07l.5-.25h0v-7.53A9.4,9.4,0,0,0,71,113.44ZM85.33,106H79.1a8.87,8.87,0,0,1-2.81,6.23,11.08,11.08,0,0,1,8,10.57v2.32a25.77,25.77,0,0,0,9.93-2l.49-.24h0v-7.54A9.39,9.39,0,0,0,85.33,106Zm-32.52-.5a7.39,7.39,0,0,0,3.93-1.12,9,9,0,0,1,3.45-5.73c0-.14,0-.27,0-.41a7.4,7.4,0,1,0-7.4,7.26Zm6.64,6.73a8.92,8.92,0,0,1-2.81-6.2q-.35,0-.69,0H49.67a9.39,9.39,0,0,0-9.47,9.29v7.53l0,.12.52.16a45.07,45.07,0,0,0,10.67,2v-2.27A11.08,11.08,0,0,1,59.45,112.18Z"/></g></g></svg>