<svg xmlns="http://www.w3.org/2000/svg" viewBox="0 0 90 90"><defs><style>.cls-1{fill:#7ed958;}.cls-2{fill:#fff;}.cls-3{fill:#17214e;}</style></defs><g id="Calque_2" data-name="Calque 2"><g id="LANDING_V2" data-name="LANDING V2"><path class="cls-1" d="M73.86,67.17l6.32-6.34L90,70.68,83.68,77Z"/><path class="cls-1" d="M82.64,59.06,78.56,55A22.32,22.32,0,1,0,58.41,67.74h0A22.07,22.07,0,0,0,68,65.53l4.08,4.1a1.49,1.49,0,0,0,2.11,0h0l8.42-8.45a1.51,1.51,0,0,0,0-2.12Z"/><ellipse class="cls-2" cx="58.41" cy="45.32" rx="16.39" ry="16.44"/><path class="cls-1" d="M59.81,50.13H56.46V45.4a2.43,2.43,0,0,1,1.95-1.5,3,3,0,1,0-3-3h-3a6,6,0,1,1,7.41,5.84Z"/><path class="cls-1" d="M56.48,52.5H59.8v3.33H56.48Z"/><path class="cls-3" d="M24.09,24.17H0V0H24.09Z"/><path class="cls-3" d="M24.09,57.5H0V33.33H24.09Z"/><path class="cls-3" d="M24.09,90H0V65.83H24.09Z"/><path class="cls-1" d="M6.26,18.33H18.18l-6-12Z"/><path class="cls-1" d="M8.86,39.17h6.72L18.93,45l-3.35,5.83H8.86L5.5,45Z"/><ellipse class="cls-1" cx="12.22" cy="78.21" rx="5.96" ry="5.98"/></g></g></svg>