<svg xmlns="http://www.w3.org/2000/svg" viewBox="0 0 180 180"><defs><style>.cls-1{fill:#7ed958;}.cls-2{fill:#fff;}.cls-3{fill:#e6f7de;}</style></defs><g id="Calque_2" data-name="Calque 2"><g id="Catalogue_of_Specifications" data-name="Catalogue of Specifications"><path class="cls-1" d="M147.72,134.34l12.64-12.69L180,141.35,167.36,154Z"/><path class="cls-1" d="M165.28,118.11l-8.17-8.19a44.64,44.64,0,1,0-40.29,25.56h0A44,44,0,0,0,136,131.06l8.17,8.19a3,3,0,0,0,4.21,0l0,0,16.84-16.89a3,3,0,0,0,0-4.23Z"/><ellipse class="cls-2" cx="116.82" cy="90.63" rx="32.78" ry="32.89"/><path class="cls-1" d="M119.62,100.25h-6.7V90.81c.9-1.67,2.24-3,3.9-3a6,6,0,1,0-6-6h-6a12,12,0,1,1,14.82,11.66Z"/><path class="cls-1" d="M113,105h6.64v6.67H113Z"/><path class="cls-3" d="M48.17,48.33H0V0H48.17Z"/><path class="cls-3" d="M48.17,115H0V66.67H48.17Z"/><path class="cls-3" d="M48.17,180H0V131.67H48.17Z"/><path class="cls-1" d="M12.52,36.67H36.36L24.44,12.75Z"/><path class="cls-1" d="M17.72,78.33H31.15L37.87,90l-6.72,11.67H17.72L11,90Z"/><ellipse class="cls-1" cx="24.44" cy="156.41" rx="11.92" ry="11.96"/></g></g></svg>