<svg xmlns="http://www.w3.org/2000/svg" viewBox="0 0 100 90"><defs><style>.cls-1{fill:#fff;}.cls-2{fill:#7ed958;}.cls-3{fill:#17214e;}</style></defs><g id="Calque_2" data-name="Calque 2"><g id="Roadmap_for_implementing_DS4SSCC" data-name="Roadmap for implementing DS4SSCC"><ellipse class="cls-1" cx="50.35" cy="42.6" rx="13.06" ry="13.08"/><path class="cls-2" d="M77.8,27.93,82.89,20l4,2.52-5.08,7.91Z"/><path class="cls-2" d="M63.34,21.57l3-8.88,4.47,1.51-3,8.87Z"/><path class="cls-2" d="M47.71,10.38h4.58v9.08H47.71Z"/><path class="cls-2" d="M29.16,14.17l4.47-1.51,3,8.88-4.48,1.51Z"/><path class="cls-2" d="M13.12,22.55l4-2.52,5.09,7.91-4,2.52Z"/><path class="cls-2" d="M71.27,43.11a21,21,0,0,1-1.65,8.19h.43a11.77,11.77,0,0,1,8.36,3.44l2.36,2.35a62.2,62.2,0,0,0,9.56-9.33A67.18,67.18,0,0,0,67,30.42a20.85,20.85,0,0,1,4.27,12.69Z"/><path class="cls-2" d="M58.25,62.58A21.47,21.47,0,0,1,35,58.07a21,21,0,0,1-2-27.66c-1.11.47-2.22,1-3.33,1.57a67.62,67.62,0,0,0-20,15.83c10,11.44,25,21.11,40.33,21.11a40,40,0,0,0,9.26-1.12,11.7,11.7,0,0,1-1-5.22Z"/><path class="cls-3" d="M70.05,56a7.14,7.14,0,0,0-3.06.69L63.25,53a16.22,16.22,0,0,0,3.29-9.84A16.48,16.48,0,1,0,59.9,56.27L63.65,60A7,7,0,0,0,65,68l11.7,11.62,10-10L75.06,58.05a7,7,0,0,0-5-2.07ZM50,50.15a7,7,0,1,1,7.09-7A7.07,7.07,0,0,1,50,50.15Z"/><ellipse class="cls-2" cx="50" cy="43.11" rx="2.36" ry="2.35"/><path class="cls-3" d="M91.74,0H83.48V7.91h7.91A1.78,1.78,0,0,1,93,9.79v9h7V9.4C100,4.21,96.3,0,91.74,0Z"/><path class="cls-3" d="M93,80.21a1.78,1.78,0,0,1-1.65,1.88H82.61V90h9.13c4.56,0,8.26-4.21,8.26-9.4V71.21H93Z"/><path class="cls-3" d="M7,9.79A1.78,1.78,0,0,1,8.61,7.91h7.91V0H8.26C3.7,0,0,4.21,0,9.4v9.39H7Z"/><path class="cls-3" d="M7,80.21v-9H0V80.6C0,85.79,3.7,90,8.26,90h8.26V82.09H8.61A1.78,1.78,0,0,1,7,80.21Z"/></g></g></svg>