<svg xmlns="http://www.w3.org/2000/svg" viewBox="0 0 200 180"><defs><style>.cls-1{fill:#17214e;}.cls-2{fill:#7ed958;}.cls-3{fill:#fff;}.cls-4{fill:#e6f7de;}</style></defs><g id="Calque_2" data-name="Calque 2"><g id="Subpage_1_-_Vision_for_the_Federation_of_Data_Spaces" data-name="Subpage 1 - Vision for the Federation of Data Spaces"><ellipse class="cls-1" cx="100.7" cy="85.19" rx="26.12" ry="26.15"/><path class="cls-2" d="M155.61,55.85,165.78,40l8,5L163.58,60.9Z"/><path class="cls-2" d="M126.69,43.13l6.06-17.75,8.95,3-6.06,17.76Z"/><path class="cls-2" d="M95.43,20.77h9.14V38.93H95.43Z"/><path class="cls-2" d="M58.32,28.34l8.95-3,6.06,17.76-9,3Z"/><path class="cls-2" d="M26.24,45.1l8-5.05L44.38,55.87l-8,5.05Z"/><path class="cls-2" d="M142.54,86.23a42,42,0,0,1-3.3,16.37l.86,0a23.52,23.52,0,0,1,16.71,6.88l4.74,4.69a124.28,124.28,0,0,0,19.12-18.64c-12.42-14.17-28.75-27-46.66-34.67a41.71,41.71,0,0,1,8.53,25.39Z"/><path class="cls-2" d="M116.5,125.17a42.93,42.93,0,0,1-46.55-9,42,42,0,0,1-4-55.33Q62.67,62.25,59.34,64a135.39,135.39,0,0,0-40,31.65c20,22.88,50.06,42.24,80.66,42.24a80.69,80.69,0,0,0,18.54-2.24,23.47,23.47,0,0,1-2-10.44Z"/><path class="cls-3" d="M140.1,112a14.12,14.12,0,0,0-6.11,1.37l-7.49-7.43a32.55,32.55,0,0,0,6.58-19.68,32.95,32.95,0,1,0-13.27,26.31l7.5,7.44a14,14,0,0,0,2.77,16l23.39,23.23,20.06-19.91-23.4-23.23a14.14,14.14,0,0,0-10-4.12ZM100,100.31a14.08,14.08,0,1,1,14.18-14.08A14.15,14.15,0,0,1,100,100.31Z"/><ellipse class="cls-2" cx="99.99" cy="86.23" rx="4.73" ry="4.69"/><path class="cls-4" d="M183.48,0H167V15.82h15.82a3.56,3.56,0,0,1,3.31,3.76v18H200V18.79C200,8.41,192.6,0,183.48,0Z"/><path class="cls-4" d="M186.09,160.42a3.56,3.56,0,0,1-3.31,3.76H165.22V180h18.26c9.12,0,16.52-8.41,16.52-18.79V142.42H186.09Z"/><path class="cls-4" d="M13.91,19.58a3.56,3.56,0,0,1,3.31-3.76H33V0H16.52C7.4,0,0,8.41,0,18.79V37.58H13.91Z"/><path class="cls-4" d="M13.91,160.42v-18H0v18.79C0,171.59,7.4,180,16.52,180H33V164.18H17.22A3.56,3.56,0,0,1,13.91,160.42Z"/></g></g></svg>