<svg xmlns="http://www.w3.org/2000/svg" viewBox="0 0 80 90"><defs><style>.cls-1{fill:#fff;}.cls-2{fill:#7ed958;}.cls-3{fill:#17214e;}</style></defs><g id="Calque_2" data-name="Calque 2"><g id="Roadmap_for_implementing_DS4SSCC" data-name="Roadmap for implementing DS4SSCC"><rect class="cls-1" x="4.91" y="9.98" width="71.58" height="38.69"/><path class="cls-2" d="M31.7,29.29a8.87,8.87,0,1,1,8.87,8.87,8.87,8.87,0,0,1-8.87-8.87ZM2.58,8.29H78.34V49.11a1.05,1.05,0,0,1-1,1.06H3.64a1.05,1.05,0,0,1-1.06-1.06V8.29ZM64.63,26.05l1.48-1.68V37.93a1.44,1.44,0,0,0,1,1.38A1.42,1.42,0,0,0,68.93,38V24.37l.87,1a1.43,1.43,0,0,0,1.62.41A1.41,1.41,0,0,0,72,23.54L68.59,19.7a1.42,1.42,0,0,0-2.13,0l-3.37,3.85a1.4,1.4,0,0,0,.14,2h0A.8.8,0,0,0,64.63,26.05ZM23.76,32.29h2.85a14.38,14.38,0,0,0,2.13,5.15l-2,2,4,4,2-2a14.26,14.26,0,0,0,5.14,2.13v2.84h5.65V44.49a13.71,13.71,0,0,0,5.15-2.31l2,2.17,4-4.32-2-2.17a16.17,16.17,0,0,0,2.13-5.57h2.84V26.17H54.78A14.08,14.08,0,0,0,52.65,21l2-2-4-4-2,2a14.26,14.26,0,0,0-5.14-2.13V12.06H37.87v3.32a14.44,14.44,0,0,0-5.14,2.13l-2-2-4,4,2,2a14.3,14.3,0,0,0-2.14,5.13H23.76v5.65ZM11,26.05l1.48-1.68V37.93a1.44,1.44,0,0,0,1,1.38A1.42,1.42,0,0,0,15.28,38V24.37l.87,1a1.45,1.45,0,0,0,1.63.41,1.41,1.41,0,0,0,.52-2.23L14.94,19.7a1.42,1.42,0,0,0-2.13,0L9.45,23.54a1.4,1.4,0,0,0,.13,2h0A.8.8,0,0,0,11,26.05Z"/><path class="cls-3" d="M38.68,75.89a14.16,14.16,0,0,0-14.06,13A1,1,0,0,0,25.68,90h26a1,1,0,0,0,1.06-1.13A14.16,14.16,0,0,0,38.68,75.89Z"/><path class="cls-2" d="M68.93,62.55a7.63,7.63,0,1,0-7.63,7.62A7.63,7.63,0,0,0,68.93,62.55Z"/><path class="cls-2" d="M61.3,72.13A14.09,14.09,0,0,0,50,77.81a17,17,0,0,1,5.09,8.43H74.31a1,1,0,0,0,1.06-1.13,14.16,14.16,0,0,0-14.07-13Z"/><path class="cls-3" d="M46.31,66.68a7.63,7.63,0,1,0-7.63,7.62A7.63,7.63,0,0,0,46.31,66.68Z"/><path class="cls-2" d="M24.39,62.55a7.63,7.63,0,1,0-7.63,7.62A7.62,7.62,0,0,0,24.39,62.55Z"/><path class="cls-2" d="M27.78,77.45A14.09,14.09,0,0,0,2.7,85.11a1,1,0,0,0,1,1.13H22.27a16.88,16.88,0,0,1,5.51-8.79Z"/><rect class="cls-3" width="80" height="5.65" rx="0.7"/></g></g></svg>