<svg xmlns="http://www.w3.org/2000/svg" viewBox="0 0 160 180"><defs><style>.cls-1{fill:#17214e;}.cls-2{fill:#7ed958;}.cls-3{fill:#fff;}.cls-4{fill:#e6f7de;}</style></defs><g id="Calque_2" data-name="Calque 2"><g id="Subpage_1_-_Capacity_Building" data-name="Subpage 1 - Capacity Building"><rect class="cls-1" x="9.81" y="19.96" width="143.16" height="77.37"/><path class="cls-2" d="M63.4,58.59A17.74,17.74,0,1,1,81.13,76.32,17.73,17.73,0,0,1,63.4,58.59Zm-58.24-42H156.69V98.23a2.12,2.12,0,0,1-2.12,2.11H7.27a2.12,2.12,0,0,1-2.11-2.11V16.59Zm124.1,35.52,3-3.38V75.85a2.82,2.82,0,1,0,5.64.08V48.73l1.74,2a2.87,2.87,0,0,0,3.25.82,2.83,2.83,0,0,0,1-4.47l-6.71-7.67a2.83,2.83,0,0,0-4.26,0l-6.73,7.69a2.82,2.82,0,0,0,.26,4h0A1.61,1.61,0,0,0,129.26,52.11ZM47.51,64.58h5.71a28.79,28.79,0,0,0,4.26,10.3l-4,4,8,8,4-4a28.54,28.54,0,0,0,10.28,4.27v5.67H87V89a27.58,27.58,0,0,0,10.3-4.61l4,4.34,8-8.65-4-4.34a32.43,32.43,0,0,0,4.27-11.14h5.68V52.35h-5.71a28.67,28.67,0,0,0-4.26-10.29l4-4-8-8-4,4A28.54,28.54,0,0,0,87,29.79V24.12H75.75v6.65A28.44,28.44,0,0,0,65.45,35l-4-4-8,8,4,4a28.52,28.52,0,0,0-4.26,10.28H47.51V64.58ZM22,52.11l3-3.38V75.85a2.83,2.83,0,1,0,5.65.08V48.73l1.74,2a2.82,2.82,0,1,0,4.29-3.65L29.88,39.4a2.82,2.82,0,0,0-4.25,0l-6.74,7.69a2.82,2.82,0,0,0,.27,4h0A1.6,1.6,0,0,0,22,52.11Z"/><path class="cls-3" d="M77.37,151.79a28.31,28.31,0,0,0-28.13,26A2.08,2.08,0,0,0,51.35,180h52a2.08,2.08,0,0,0,2.11-2.25A28.31,28.31,0,0,0,77.37,151.79Z"/><path class="cls-2" d="M137.85,125.09a15.25,15.25,0,1,0-15.25,15.25A15.25,15.25,0,0,0,137.85,125.09Z"/><path class="cls-2" d="M122.6,144.26A28.21,28.21,0,0,0,100,155.62a33.85,33.85,0,0,1,10.19,16.85h38.42a2.08,2.08,0,0,0,2.11-2.25,28.31,28.31,0,0,0-28.13-26Z"/><path class="cls-3" d="M92.62,133.35A15.25,15.25,0,1,0,77.37,148.6,15.25,15.25,0,0,0,92.62,133.35Z"/><path class="cls-2" d="M48.78,125.09a15.25,15.25,0,1,0-15.25,15.25A15.25,15.25,0,0,0,48.78,125.09Z"/><path class="cls-2" d="M55.56,154.89A28.19,28.19,0,0,0,5.4,170.22a2.08,2.08,0,0,0,2.11,2.25h37a33.88,33.88,0,0,1,11-17.58Z"/><rect class="cls-4" width="160" height="11.29" rx="1.41"/></g></g></svg>