<svg xmlns="http://www.w3.org/2000/svg" viewBox="0 0 90 90"><defs><style>.cls-1{fill:#fff;}.cls-2{fill:#7ed958;}.cls-3{fill:#17214e;}</style></defs><g id="Calque_2" data-name="Calque 2"><g id="Roadmap_for_implementing_DS4SSCC" data-name="Roadmap for implementing DS4SSCC"><g id="_10" data-name="10"><ellipse class="cls-1" cx="44.79" cy="22.35" rx="11.97" ry="12"/><path class="cls-2" d="M6.74,48.47H.27V86.78H6.74a3.21,3.21,0,0,0,3.2-3.21V51.67A3.2,3.2,0,0,0,6.74,48.47Z"/><path class="cls-3" d="M86.31,52.33a7.56,7.56,0,0,0-7.53-.16L57.69,63.54a8,8,0,0,1-7.95,7.08H36.9a1.67,1.67,0,0,1-1.65-1.3,1.62,1.62,0,0,1,1.59-1.93H48.52A4.82,4.82,0,0,0,53.38,63a4.69,4.69,0,0,0-4.54-5H32.78l-5.33-5.34a3.19,3.19,0,0,0-2.26-.94H12.7V83.55h5.68L28.8,86.77c4.33,1.4,9,3.23,14.09,3.23A21.47,21.47,0,0,0,56,85.43L86.72,65.07a7.57,7.57,0,0,0-.41-12.74Z"/><path class="cls-2" d="M44.89,35.55A12.84,12.84,0,1,0,32.1,22.71,12.83,12.83,0,0,0,44.89,35.55ZM39,23.18a1.61,1.61,0,0,1,2.26,0L43,25l5.32-8A1.6,1.6,0,0,1,51,18.79l-6.4,9.63a1.58,1.58,0,0,1-1.17.7h-.16a1.61,1.61,0,0,1-1.13-.47L39,25.45A1.62,1.62,0,0,1,39,23.18Z"/><path class="cls-2" d="M83.32,32.31a6.44,6.44,0,0,0-5.55,3.23H75L69.53,30a3.19,3.19,0,0,0-2.26-.94H59.58a16.31,16.31,0,0,1-14.17,9.64l2.71,13.61a3.22,3.22,0,0,0,2.73,2.57l.43,0a3.21,3.21,0,0,0,2.88-1.79l2.34-4.67h4.34a3.22,3.22,0,0,0,2.62-5.17l-5.8-7.76h8.22l5.51,5.53a3.17,3.17,0,0,0,2.26.93h4.12a6.42,6.42,0,0,0,11.8-1.6A6.48,6.48,0,0,0,83.32,32.31Z"/><path class="cls-2" d="M18.4,41.07l5.51-5.53h8.21l-5.8,7.76A3.22,3.22,0,0,0,29,48.47h4.34l2.33,4.67a3.21,3.21,0,0,0,2.88,1.79,3.11,3.11,0,0,0,.43,0,3.22,3.22,0,0,0,2.73-2.57l2.72-13.61A16.35,16.35,0,0,1,30.2,29.08H22.52a3.18,3.18,0,0,0-2.26.94l-5.51,5.52H12a6.4,6.4,0,0,0-7.18-3A6.34,6.34,0,0,0,.22,37.15,6.43,6.43,0,0,0,12,42h4.13A3.18,3.18,0,0,0,18.4,41.07Z"/><path class="cls-3" d="M4.81,28.87a6.4,6.4,0,0,0,7.18-3H29.32a16.46,16.46,0,0,1,0-6.46H12A6.43,6.43,0,0,0,.2,24.24,6.34,6.34,0,0,0,4.81,28.87Z"/><path class="cls-3" d="M85,16.36a6.42,6.42,0,0,0-7.19,3H60.46a16,16,0,0,1,0,6.46H77.79A6.44,6.44,0,1,0,85,16.36Z"/><path class="cls-2" d="M6.46,12.92A6.4,6.4,0,0,0,12,9.69H14.7l5.51,5.53a3.19,3.19,0,0,0,2.26.94h7.82a16.15,16.15,0,0,1,5.18-6.47H23.91L18.4,4.17a3.19,3.19,0,0,0-2.26-.94H12a6.4,6.4,0,0,0-7.18-3A6.34,6.34,0,0,0,.22,4.84,6.46,6.46,0,0,0,6.46,12.92Z"/><path class="cls-2" d="M59.5,16.16h7.81a3.22,3.22,0,0,0,2.27-.94l5.5-5.53h2.69A6.45,6.45,0,1,0,83.32,0a6.44,6.44,0,0,0-5.55,3.23H73.65a3.22,3.22,0,0,0-2.27.94l-5.5,5.52H54.32A16.33,16.33,0,0,1,59.5,16.16Z"/></g></g></g></svg>