<svg xmlns="http://www.w3.org/2000/svg" viewBox="0 0 180 180"><defs><style>.cls-1{fill:#17214e;}.cls-2{fill:#7ed958;}.cls-3{fill:#e6f7de;}.cls-4{fill:#fff;}</style></defs><g id="Calque_2" data-name="Calque 2"><g id="Subpage_1_-_Recommended_Action_for_Standardisation" data-name="Subpage 1 - Recommended Action for Standardisation"><g id="_10" data-name="10"><ellipse class="cls-1" cx="89.59" cy="44.71" rx="23.93" ry="24"/><path class="cls-2" d="M13.47,96.93H.54v76.63H13.47a6.41,6.41,0,0,0,6.4-6.42V103.35A6.41,6.41,0,0,0,13.47,96.93Z"/><path class="cls-3" d="M172.62,104.66a15.07,15.07,0,0,0-15.05-.33l-42.19,22.74a16.09,16.09,0,0,1-15.9,14.18H73.81a3.31,3.31,0,0,1-3.3-2.62,3.23,3.23,0,0,1,3.16-3.85H97a9.64,9.64,0,0,0,9.73-8.73A9.39,9.39,0,0,0,97.68,116c-1.87,0-32.13,0-32.13,0L54.91,105.27a6.4,6.4,0,0,0-4.53-1.87h-25v63.69H36.77l20.83,6.45c8.66,2.79,17.92,6.46,28.18,6.46a42.93,42.93,0,0,0,26.3-9.15l61.35-40.71a15.14,15.14,0,0,0-.81-25.48Z"/><path class="cls-2" d="M89.78,71.09A25.67,25.67,0,1,0,64.19,45.43,25.66,25.66,0,0,0,89.78,71.09ZM77.92,46.37a3.19,3.19,0,0,1,4.53,0L86.09,50,96.72,34A3.2,3.2,0,1,1,102,37.58L89.25,56.83a3.23,3.23,0,0,1-2.35,1.42h-.32a3.19,3.19,0,0,1-2.26-.94l-6.4-6.42A3.2,3.2,0,0,1,77.92,46.37Z"/><path class="cls-2" d="M166.64,64.62a12.85,12.85,0,0,0-11.09,6.46h-5.47l-11-11a6.41,6.41,0,0,0-4.52-1.88H119.17A32.68,32.68,0,0,1,90.81,77.43l5.44,27.23a6.44,6.44,0,0,0,5.46,5.14,6.11,6.11,0,0,0,.86.06,6.46,6.46,0,0,0,5.76-3.57L113,96.93h8.68a6.44,6.44,0,0,0,5.26-10.33l-11.6-15.52h16.43l11,11A6.41,6.41,0,0,0,147.29,84h8.26a12.89,12.89,0,1,0,11.09-19.39Z"/><path class="cls-2" d="M36.8,82.13l11-11H64.24L52.64,86.6A6.44,6.44,0,0,0,57.9,96.93h8.68l4.66,9.36A6.46,6.46,0,0,0,77,109.86a6.22,6.22,0,0,0,.86-.06,6.44,6.44,0,0,0,5.46-5.14l5.43-27.23A32.64,32.64,0,0,1,60.4,58.16H45A6.41,6.41,0,0,0,40.51,60l-11,11H24A12.93,12.93,0,1,0,24,84h8.26A6.41,6.41,0,0,0,36.8,82.13Z"/><path class="cls-4" d="M9.61,57.75A12.83,12.83,0,0,0,24,51.7H58.65a32.48,32.48,0,0,1,0-12.93H24a12.88,12.88,0,1,0-14.37,19Z"/><path class="cls-4" d="M170,32.72a12.83,12.83,0,0,0-14.37,6.05H120.92a32.48,32.48,0,0,1,0,12.93h34.67a12.88,12.88,0,1,0,14.37-19Z"/><path class="cls-2" d="M12.93,25.85A12.84,12.84,0,0,0,24,19.39H29.4l11,11a6.35,6.35,0,0,0,4.52,1.88H60.58A32.33,32.33,0,0,1,70.94,19.39H47.82l-11-11a6.41,6.41,0,0,0-4.52-1.88H24A12.89,12.89,0,1,0,12.93,25.85Z"/><path class="cls-2" d="M119,32.31h15.64a6.39,6.39,0,0,0,4.52-1.88l11-11h5.38A12.89,12.89,0,1,0,166.64,0a12.85,12.85,0,0,0-11.09,6.46h-8.26a6.41,6.41,0,0,0-4.52,1.88l-11,11.05H108.64A32.31,32.31,0,0,1,119,32.31Z"/></g></g></g></svg>