<svg xmlns="http://www.w3.org/2000/svg" viewBox="0 0 85 90"><defs><style>.cls-1{fill:#17214e;}.cls-2{fill:#7ed958;}.cls-3{fill:#fff;}</style></defs><g id="Calque_2" data-name="Calque 2"><g id="LANDING_V2" data-name="LANDING V2"><path class="cls-1" d="M49.83,61.1c0-12.83,13.58-16.48,13.58-16.48V10L61.35,8.87l-27.6,2.91L6.15,8.87H1.86A1.85,1.85,0,0,0,0,10.72V88a1.85,1.85,0,0,0,1.86,1.85H56.32l8.09.12V74.75C59.62,75.15,49.83,74.4,49.83,61.1Z"/><path class="cls-1" d="M67.43,10.72V44.24a21.83,21.83,0,0,0-10.06,2.34V9.29l4-.42h4.25a1.85,1.85,0,0,1,1.85,1.85Z"/><path class="cls-1" d="M67.43,73.82V88a1.85,1.85,0,0,1-1.85,1.85H55.52A1.85,1.85,0,0,0,57.37,88V73.37a20.68,20.68,0,0,0,10.06.45Z"/><path class="cls-2" d="M7.05,83.15V8.87H58.11l3.13.68-.75,37.88s-8.8-1.42-8.8,12.86S61.39,73,61.39,73l-.1,9.76-3.18,1.1H7.78a.73.73,0,0,1-.73-.73Z"/><path class="cls-1" d="M37.24,7.87h-7V3.73A3.66,3.66,0,0,1,33.09.06a3.55,3.55,0,0,1,4.15,3.57Z"/><path class="cls-3" d="M14.88,72.88h9.49a.79.79,0,0,0,.79-.79V62.66a.78.78,0,0,0-.79-.78H14.88a.78.78,0,0,0-.79.78v9.43A.79.79,0,0,0,14.88,72.88Z"/><ellipse class="cls-3" cx="64.54" cy="59.79" rx="13.1" ry="13.02"/><path class="cls-3" d="M14.88,52.88h9.49a.79.79,0,0,0,.79-.79V42.66a.79.79,0,0,0-.79-.79H14.88a.79.79,0,0,0-.79.79v9.43A.79.79,0,0,0,14.88,52.88Z"/><path class="cls-1" d="M84.61,58a1,1,0,0,0-.07-.34V57a1.11,1.11,0,0,0-1.11-1.11H81.5l-.15,0a15.87,15.87,0,0,0-1.25-3.67.62.62,0,0,1,.08-.72l1.4-1.35a1.12,1.12,0,0,0,0-1.62l-4.06-3.92a1.13,1.13,0,0,0-1.58,0L74.48,46a.59.59,0,0,1-.68.08,17.18,17.18,0,0,0-3.92-1.57.57.57,0,0,1-.43-.55V42a1.14,1.14,0,0,0-1.14-1.13H62.53A1.14,1.14,0,0,0,61.39,42v1.61a3.57,3.57,0,0,1-.8.54,16.68,16.68,0,0,0-3.85,1.58.56.56,0,0,1-.68-.09l-1.4-1.39a1.15,1.15,0,0,0-1.61,0l-4,3.94a1.13,1.13,0,0,0,0,1.6l1.4,1.39a.54.54,0,0,1,.09.67A16.51,16.51,0,0,0,49,55.67c-.06.24-.29.41-.54.21h-2a1.55,1.55,0,0,0-1.16,1.33v5.58c0,.62,1.16.09,1.16.09h2s.48,1.2.55,1.45a16,16,0,0,0,1.58,3.82.54.54,0,0,1-.07.65l0,.15-.78.78A1.11,1.11,0,0,0,49.47,71a1.17,1.17,0,0,0,.33.82l3.39,3.37a1.1,1.1,0,0,0,.92.3,1.13,1.13,0,0,0,1.09-.27l1.34-1.34a.54.54,0,0,1,.35-.16,18.3,18.3,0,0,0,4,1.68.65.65,0,0,1,.45.54v2A1.08,1.08,0,0,0,62.49,79l4.8.29a1.15,1.15,0,0,0,1.15-1.13v-2a.56.56,0,0,1,.4-.55,20.41,20.41,0,0,0,4.31-1.79l.12-.05a.57.57,0,0,1,.22.11l1.5,1.4a1.24,1.24,0,0,0,.63.28,1.16,1.16,0,0,0,1.22-.26l3.48-3.51s0-.06.06-.08l.23-.23a1.11,1.11,0,0,0,0-1.64l-1.35-1.26a.56.56,0,0,1-.09-.71,15.34,15.34,0,0,0,1.61-3.63.57.57,0,0,1,.55-.41h2.51A1.15,1.15,0,0,0,85,62.75Z"/><path class="cls-3" d="M64.93,50A10,10,0,0,1,75,60a9.93,9.93,0,0,1-1.8,5.7,19,19,0,0,1-5.52,3.91,9.91,9.91,0,0,1-2.74.39,10,10,0,1,1,0-20Z"/><path class="cls-3" d="M14.88,33.87h9.49a.78.78,0,0,0,.79-.78V23.66a.79.79,0,0,0-.79-.79H14.88a.79.79,0,0,0-.79.79v9.43A.78.78,0,0,0,14.88,33.87Z"/><path class="cls-3" d="M43.42,72.88H31.09a1.5,1.5,0,1,1,0-3H43.42a1.5,1.5,0,1,1,0,3Z"/><path class="cls-3" d="M40.06,65.88H31.24a1.5,1.5,0,1,1,0-3h8.82a1.5,1.5,0,1,1,0,3Z"/><path class="cls-3" d="M43,52.88H31.11a1.5,1.5,0,1,1,0-3H43a1.5,1.5,0,1,1,0,3Z"/><path class="cls-3" d="M45.58,45.87H31a1.5,1.5,0,1,1,0-3H45.58a1.5,1.5,0,1,1,0,3Z"/><path class="cls-3" d="M50.7,33.87H30.76a1.5,1.5,0,1,1,0-3H50.7a1.5,1.5,0,1,1,0,3Z"/><path class="cls-3" d="M55.43,26.87H30.54a1.5,1.5,0,1,1,0-3H55.43a1.5,1.5,0,1,1,0,3Z"/><path class="cls-1" d="M48.57,12.54l-4.85.33h-23a.55.55,0,0,1-.55-.55V9a4.19,4.19,0,0,1,4.2-4.17H40l4.39.48a4.32,4.32,0,0,1,4.34,4.31l.4,2.31A.56.56,0,0,1,48.57,12.54Z"/></g></g></svg>