<svg xmlns="http://www.w3.org/2000/svg" viewBox="0 0 170 180"><defs><style>.cls-1{fill:#e6f7de;}.cls-2{fill:#7ed958;}.cls-3{fill:#17214e;}.cls-4{fill:#fff;}</style></defs><g id="Calque_2" data-name="Calque 2"><g id="Subpage_2-_Action_Plan-_Phase_1_Preliminary_Phase-process" data-name="Subpage 2- Action Plan- Phase 1 Preliminary Phase-process"><path class="cls-1" d="M99.66,122.2c0-25.65,27.15-33,27.15-33V19.93l-4.12-2.19L67.5,23.55,12.3,17.74H3.71A3.71,3.71,0,0,0,0,21.44V176.07a3.7,3.7,0,0,0,3.71,3.69H112.64l16.19.24V149.51C119.24,150.29,99.66,148.81,99.66,122.2Z"/><path class="cls-1" d="M134.87,21.44v67a44,44,0,0,0-20.13,4.68V18.59l7.92-.85h8.51a3.7,3.7,0,0,1,3.7,3.7Z"/><path class="cls-1" d="M134.87,147.63v28.43a3.72,3.72,0,0,1-3.72,3.7H111a3.7,3.7,0,0,0,3.7-3.7V146.74c9.63,3.31,20.13.89,20.13.89Z"/><path class="cls-2" d="M14.09,166.3V17.74H116.22l6.26,1.37L121,94.85S103.37,92,103.37,120.58s19.42,25.47,19.42,25.47l-.21,19.51-6.36,2.2H15.56a1.47,1.47,0,0,1-1.47-1.46Z"/><path class="cls-2" d="M74.48,15.74H60.39V7.46A7.36,7.36,0,0,1,66.17.11a7.13,7.13,0,0,1,8.31,7.15Z"/><path class="cls-3" d="M29.76,145.75h19a1.56,1.56,0,0,0,1.57-1.56V125.32a1.57,1.57,0,0,0-1.57-1.57h-19a1.57,1.57,0,0,0-1.58,1.57v18.87A1.57,1.57,0,0,0,29.76,145.75Z"/><ellipse class="cls-4" cx="129.08" cy="119.58" rx="26.21" ry="26.04"/><path class="cls-3" d="M29.76,105.75h19a1.56,1.56,0,0,0,1.57-1.56V85.31a1.56,1.56,0,0,0-1.57-1.56h-19a1.57,1.57,0,0,0-1.58,1.56v18.88A1.57,1.57,0,0,0,29.76,105.75Z"/><path class="cls-4" d="M169.23,115.9a2.11,2.11,0,0,0-.14-.67V114a2.24,2.24,0,0,0-2.24-2.22H163a1.06,1.06,0,0,1-.31,0,30.76,30.76,0,0,0-2.5-7.35,1.21,1.21,0,0,1,.17-1.42l2.81-2.71a2.25,2.25,0,0,0,0-3.24L155,89.13a2.29,2.29,0,0,0-3.17,0L149,92a1.13,1.13,0,0,1-1.35.17A34.55,34.55,0,0,0,139.75,89a1.13,1.13,0,0,1-.86-1.09V84a2.27,2.27,0,0,0-2.27-2.26H125.06A2.27,2.27,0,0,0,122.79,84v3.21a7.44,7.44,0,0,1-1.62,1.09,32.67,32.67,0,0,0-7.69,3.16,1.14,1.14,0,0,1-1.36-.19l-2.8-2.78a2.28,2.28,0,0,0-3.21,0l-7.94,7.89a2.24,2.24,0,0,0,0,3.19l2.78,2.77a1.12,1.12,0,0,1,.19,1.35A32.56,32.56,0,0,0,98,111.34c-.14.49-.59.82-1.1.41H92.9a3.11,3.11,0,0,0-2.32,2.67v11.15c0,1.25,2.32.18,2.32.18h3.94s1,2.42,1.09,2.91a32.6,32.6,0,0,0,3.18,7.65,1.12,1.12,0,0,1-.15,1.3l0,.29-1.57,1.56a2.24,2.24,0,0,0-.48,2.47,2.2,2.2,0,0,0,.66,1.62l6.78,6.74a3.66,3.66,0,0,0,4,.06l2.7-2.68a1.14,1.14,0,0,1,.69-.32,37,37,0,0,0,8.1,3.37,1.32,1.32,0,0,1,.91,1.08v3.93A2.14,2.14,0,0,0,125,158l9.61.6a2.3,2.3,0,0,0,2.3-2.26v-3.91a1.08,1.08,0,0,1,.8-1.09,41.93,41.93,0,0,0,8.62-3.59.7.7,0,0,1,.24-.09,1.11,1.11,0,0,1,.44.2l3,2.81a2.25,2.25,0,0,0,1.26.55,2.28,2.28,0,0,0,2.43-.5l7-7c.05-.05.07-.12.12-.18l.47-.44a2.26,2.26,0,0,0,0-3.29l-2.71-2.53a1.14,1.14,0,0,1-.18-1.42,30.6,30.6,0,0,0,3.22-7.25,1.13,1.13,0,0,1,1.09-.83h5a2.28,2.28,0,0,0,2.32-2.24Z"/><path class="cls-2" d="M129.85,100A20.06,20.06,0,0,1,150,120a19.82,19.82,0,0,1-3.61,11.41,37.71,37.71,0,0,1-11,7.82,20.28,20.28,0,0,1-5.49.77,20,20,0,1,1,0-40Z"/><path class="cls-3" d="M29.76,67.75h19a1.57,1.57,0,0,0,1.57-1.57V47.31a1.56,1.56,0,0,0-1.57-1.56h-19a1.57,1.57,0,0,0-1.58,1.56V66.18A1.57,1.57,0,0,0,29.76,67.75Z"/><path class="cls-3" d="M86.84,145.75H62.18a3,3,0,1,1,0-6H86.84a3,3,0,1,1,0,6Z"/><path class="cls-3" d="M80.12,131.75H62.49a3,3,0,1,1,0-6H80.12a3,3,0,1,1,0,6Z"/><path class="cls-3" d="M86,105.75H62.22a3,3,0,1,1,0-6H86a3,3,0,1,1,0,6Z"/><path class="cls-3" d="M91.17,91.75H62a3,3,0,1,1,0-6H91.17a3,3,0,1,1,0,6Z"/><path class="cls-3" d="M101.39,67.75H61.52a3,3,0,1,1,0-6h39.87a3,3,0,1,1,0,6Z"/><path class="cls-3" d="M110.85,53.75H61.09a3,3,0,1,1,0-6h49.76a3,3,0,1,1,0,6Z"/><path class="cls-1" d="M97.15,25.08l-9.7.66H41.36a1.09,1.09,0,0,1-1.1-1.09V18.09a8.38,8.38,0,0,1,8.4-8.35H80l8.78,1a8.64,8.64,0,0,1,8.67,8.61L98.28,24A1.14,1.14,0,0,1,97.15,25.08Z"/></g></g></svg>