<svg xmlns="http://www.w3.org/2000/svg" viewBox="0 0 205 180"><defs><style>.cls-1{fill:#fff;}.cls-2{fill:#e6f7de;}.cls-3{fill:#7ed958;}.cls-4{fill:#17214e;}.cls-5{fill:#80cf00;}</style></defs><g id="Calque_2" data-name="Calque 2"><g id="Multi-stakeholder_Governance_Scheme_Page_1" data-name="Multi-stakeholder Governance Scheme Page 1"><path class="cls-1" d="M185.4,34.7a3,3,0,0,0-2.66-1.63H22.26A3,3,0,0,0,19.6,34.7a3,3,0,0,0,.2,3.13L100,153.52a3,3,0,0,0,4.92,0L185.2,37.83A3,3,0,0,0,185.4,34.7ZM102.5,146.16,28,38.78H177Z"/><path class="cls-2" d="M173.74,115.9a2.86,2.86,0,0,1-.83,2,2.82,2.82,0,0,1-2,.84h-9.6a2.81,2.81,0,0,1-2-.84,2.86,2.86,0,0,1-.83-2v-9.46a3,3,0,0,1,2.42-3,2.84,2.84,0,0,1,3.25,2.83v6.83h6.77a2.85,2.85,0,0,1,2.84,2.85Zm8.5-12.85h-6.78V96.44a3,3,0,0,0-2.42-3,2.85,2.85,0,0,0-3.24,2.83v9.68a2.86,2.86,0,0,0,.83,2,2.8,2.8,0,0,0,2,.84h9.61a2.85,2.85,0,0,0,2.83-2.85,2.85,2.85,0,0,0-2.83-2.86Z"/><path class="cls-3" d="M200.65,56.16A38.41,38.41,0,0,0,167.14,0a37.6,37.6,0,0,0-17.86,4.4v0l-.16.09-.18.09-.18.12a38.39,38.39,0,0,0,18.19,72A38,38,0,0,0,200.6,56.24l0,0v-.05Z"/><path class="cls-4" d="M116.63,13.22a3,3,0,0,1-.88,2.14l-7.2,7.26a3,3,0,0,1-4.24,0,3.06,3.06,0,0,1,0-4.29l5.08-5.11L104.31,8.1a3,3,0,0,1,0-4.28,3,3,0,0,1,2.12-.89,3,3,0,0,1,2.13.89l7.2,7.26A3.05,3.05,0,0,1,116.63,13.22ZM93.49,3.82a3,3,0,0,0-4.24,0,3,3,0,0,0,0,4.28l5.07,5.12-5.07,5.11a3,3,0,0,0,0,4.29,3,3,0,0,0,4.24,0l7.2-7.26a3,3,0,0,0,0-4.28Z"/><path class="cls-2" d="M71.72,56.16A38.41,38.41,0,0,0,38.21,0,37.56,37.56,0,0,0,20.36,4.4v0l-.16.09L20,4.56l-.19.12a38.39,38.39,0,0,0,18.2,72A38,38,0,0,0,71.68,56.24s0,0,0,0v0l0,0Z"/><path class="cls-3" d="M30.94,103.05v6.56a3,3,0,0,1-3.14,3.11,2.88,2.88,0,0,1-1.69-.82,2.83,2.83,0,0,1-.83-2v-9.69a2.88,2.88,0,0,1,.83-2,2.83,2.83,0,0,1,2-.83H37.5a3,3,0,0,1,3,2.44,2.84,2.84,0,0,1-2.8,3.27Zm20.92,8.15a3,3,0,0,0-3-2.44H39.45a2.81,2.81,0,0,0-2,.84,2.86,2.86,0,0,0-.83,2v9.68a2.86,2.86,0,0,0,.83,2,2.77,2.77,0,0,0,1.69.82,3,3,0,0,0,3.15-3.1v-6.57h6.77A2.85,2.85,0,0,0,51.86,111.2Z"/><path class="cls-3" d="M136.19,159.48a38.48,38.48,0,0,0,4.35-18c-.1-20.92-17.11-38.07-37.87-38.16a37.67,37.67,0,0,0-17.85,4.39h0l-.16.09-.18.09-.19.12a38.39,38.39,0,0,0,18.2,72,38,38,0,0,0,33.64-20.44l0,0,0,0v0Z"/><path class="cls-5" d="M45.89,41.64H31.52a11.89,11.89,0,0,0-7.93,3l0,.05a12.07,12.07,0,0,0-4,9v8.77a2,2,0,0,0,2,2H55.87a2,2,0,0,0,2-2V53.71h0A12,12,0,0,0,45.89,41.64Z"/><path class="cls-4" d="M104.86,139.3c5.64-.8,9.68-6,9.68-11.69v-3a11.64,11.64,0,0,0-9.68-11.69,11.37,11.37,0,0,0-13,11.3V128A11.37,11.37,0,0,0,104.86,139.3Z"/><path class="cls-5" d="M39.68,36c5.64-.8,9.68-5.95,9.68-11.69v-3c0-5.74-4-10.89-9.68-11.69a11.37,11.37,0,0,0-13,11.3v3.81A11.37,11.37,0,0,0,39.68,36Z"/><path class="cls-4" d="M109.61,144.47H95.28a11.89,11.89,0,0,0-7.93,3l.05.06a12.11,12.11,0,0,0-4,9v8.73a2,2,0,0,0,2,2h34.25a2,2,0,0,0,2-2v-8.73h0A12.05,12.05,0,0,0,109.61,144.47Z"/><path class="cls-1" d="M175.18,41.18H160.81a11.94,11.94,0,0,0-7.93,3l0,.05a12.11,12.11,0,0,0-4,9V62a2,2,0,0,0,2,2h34.26a2,2,0,0,0,2-2V53.25h0A12,12,0,0,0,175.18,41.18Z"/><path class="cls-1" d="M169,35.52a11.65,11.65,0,0,0,9.69-11.69v-3A11.65,11.65,0,0,0,169,9.1a11.37,11.37,0,0,0-13,11.31v3.81A11.36,11.36,0,0,0,169,35.52Z"/></g></g></svg>