<svg xmlns="http://www.w3.org/2000/svg" viewBox="0 0 103 90"><defs><style>.cls-1{fill:#17214e;}.cls-2{fill:#fff;}.cls-3{fill:#7ed958;}.cls-4{fill:#80cf00;}</style></defs><g id="Calque_2" data-name="Calque 2"><g id="LANDING_V2" data-name="LANDING V2"><path class="cls-1" d="M93.15,17.35a1.51,1.51,0,0,0-1.34-.82H11.19A1.52,1.52,0,0,0,10,18.91L50.26,76.76a1.52,1.52,0,0,0,2.48,0L93.05,18.91A1.51,1.51,0,0,0,93.15,17.35ZM51.5,73.08,14.08,19.39H88.92Z"/><path class="cls-2" d="M87.29,58a1.45,1.45,0,0,1-.41,1,1.43,1.43,0,0,1-1,.42H81A1.42,1.42,0,0,1,80,59a1.46,1.46,0,0,1-.41-1V53.22a1.5,1.5,0,0,1,1.21-1.52,1.41,1.41,0,0,1,1.63,1.41v3.41h3.41A1.42,1.42,0,0,1,87.29,58Zm4.27-6.43h-3.4v-3.3a1.49,1.49,0,0,0-1.22-1.52,1.42,1.42,0,0,0-1.63,1.41V53a1.43,1.43,0,0,0,1.43,1.43h4.82A1.43,1.43,0,0,0,93,53a1.43,1.43,0,0,0-1.43-1.43Z"/><path class="cls-3" d="M100.81,28.08A19.18,19.18,0,0,0,84,0a19,19,0,0,0-9,2.2h0l-.08.05-.09,0-.09.06a19.15,19.15,0,1,0,26,25.78v0h0Z"/><path class="cls-1" d="M58.6,6.61a1.52,1.52,0,0,1-.44,1.07l-3.62,3.63a1.51,1.51,0,1,1-2.13-2.14L55,6.61,52.41,4.05a1.51,1.51,0,0,1,0-2.14,1.51,1.51,0,0,1,2.13,0l3.62,3.63A1.52,1.52,0,0,1,58.6,6.61ZM47,1.91a1.51,1.51,0,0,0-2.13,0,1.51,1.51,0,0,0,0,2.14l2.55,2.56L44.84,9.17A1.51,1.51,0,0,0,47,11.31l3.62-3.63a1.52,1.52,0,0,0,0-2.14Z"/><path class="cls-1" d="M36,28.08A19.2,19.2,0,0,0,19.2,0a19,19,0,0,0-9,2.2h0l-.08.05-.09,0L10,2.34A19.15,19.15,0,1,0,36,28.12v0h0Z"/><path class="cls-3" d="M15.55,51.52v3.29A1.51,1.51,0,0,1,14,56.36a1.45,1.45,0,0,1-.85-.41,1.43,1.43,0,0,1-.42-1V50.1a1.43,1.43,0,0,1,1.42-1.43h4.72a1.49,1.49,0,0,1,1.52,1.22A1.42,1.42,0,0,1,19,51.52ZM26.06,55.6a1.51,1.51,0,0,0-1.52-1.22H19.82a1.42,1.42,0,0,0-1,.42,1.46,1.46,0,0,0-.41,1v4.84a1.4,1.4,0,0,0,.41,1,1.45,1.45,0,0,0,.85.41,1.5,1.5,0,0,0,1.58-1.55V57.24h3.41A1.44,1.44,0,0,0,26.06,55.6Z"/><path class="cls-3" d="M68.43,79.74A19.2,19.2,0,0,0,51.59,51.66a18.93,18.93,0,0,0-9,2.2h0l-.08,0-.09,0-.09.06a19.15,19.15,0,1,0,26,25.78v0h0Z"/><path class="cls-4" d="M23.06,20.82H15.84a6.06,6.06,0,0,0-4,1.5l0,0a6.06,6.06,0,0,0-2,4.51v4.38a1,1,0,0,0,1,1H28.07a1,1,0,0,0,1-1V26.87h0A6,6,0,0,0,23.06,20.82Z"/><path class="cls-1" d="M52.68,69.65a5.83,5.83,0,0,0,4.87-5.85V62.28a5.83,5.83,0,0,0-4.87-5.84,5.7,5.7,0,0,0-6.52,5.65V64A5.7,5.7,0,0,0,52.68,69.65Z"/><path class="cls-4" d="M19.94,18a5.83,5.83,0,0,0,4.86-5.85V10.62a5.83,5.83,0,0,0-4.86-5.84,5.7,5.7,0,0,0-6.53,5.65v1.91A5.7,5.7,0,0,0,19.94,18Z"/><path class="cls-1" d="M55.07,72.23h-7.2a6,6,0,0,0-4,1.51l0,0a6,6,0,0,0-2,4.52v4.36a1,1,0,0,0,1,1H60.1a1,1,0,0,0,1-1V78.29h0A6,6,0,0,0,55.07,72.23Z"/><path class="cls-2" d="M88,20.59H80.8a6.06,6.06,0,0,0-4,1.5l0,0a6,6,0,0,0-2,4.51V31a1,1,0,0,0,1,1H93a1,1,0,0,0,1-1V26.64h0A6,6,0,0,0,88,20.59Z"/><path class="cls-2" d="M84.9,17.76a5.83,5.83,0,0,0,4.86-5.84V10.4A5.83,5.83,0,0,0,84.9,4.55a5.7,5.7,0,0,0-6.53,5.65v1.91A5.7,5.7,0,0,0,84.9,17.76Z"/></g></g></svg>