<svg xmlns="http://www.w3.org/2000/svg" viewBox="0 0 90 85"><defs><style>.cls-1{fill:#fff;}.cls-2{fill:#00ce7c;}.cls-3{fill:#92debc;}.cls-4{opacity:0.13;}</style></defs><g id="Calque_2" data-name="Calque 2"><g id="LANDING_V2" data-name="LANDING V2"><rect class="cls-1" y="63.74" width="67.92" height="21.26"/><rect class="cls-2" y="7.64" width="67.92" height="21.26"/><rect class="cls-3" y="35.69" width="67.92" height="21.26"/><path class="cls-1" d="M8.51,46.32a2.69,2.69,0,1,1,2.69,2.62A2.65,2.65,0,0,1,8.51,46.32Z"/><path class="cls-2" d="M8.51,74.37A2.69,2.69,0,1,1,11.2,77,2.65,2.65,0,0,1,8.51,74.37Z"/><path class="cls-2" d="M22.31,74.37A2.69,2.69,0,1,1,25,77,2.66,2.66,0,0,1,22.31,74.37Z"/><path class="cls-1" d="M8.51,18.27A2.69,2.69,0,1,1,11.2,20.9,2.65,2.65,0,0,1,8.51,18.27Z"/><path class="cls-1" d="M22.31,18.27A2.69,2.69,0,1,1,25,20.9,2.66,2.66,0,0,1,22.31,18.27Z"/><ellipse class="cls-1" cx="64.55" cy="24.42" rx="25.53" ry="24.33" transform="translate(-4.19 18.27) rotate(-15.61)"/><path class="cls-2" d="M85.11,9.53c-3.31,1.93-6.61,3.85-9.9,5.81-5,2.94-9.77,6.5-14.6,9.64C63.39,27.67,73,36.54,76.55,40.07L80,43.45a25.44,25.44,0,0,0,6.35-6.94A23.53,23.53,0,0,0,85.11,9.53Z"/><path class="cls-3" d="M60.61,25q5.77-3.21,11.71-6.13,5.66-2.78,11.43-5.3l3.13-1.36a23.89,23.89,0,0,0-9.18-9A25.55,25.55,0,0,0,65.56,0C64.74,3.86,64,7.72,63.22,11.58,62.32,16,61.46,20.51,60.61,25Z"/><g class="cls-4"><path d="M61.52,44.22Z"/></g></g></g></svg>