<svg xmlns="http://www.w3.org/2000/svg" viewBox="0 0 90 70"><defs><style>.cls-1{fill:#fff;}.cls-2{fill:#92debc;}.cls-3{fill:#00ce7c;}</style></defs><g id="Calque_2" data-name="Calque 2"><g id="landing"><path class="cls-1" d="M82.68,69.93c0-20.1.23-37.61,0-56.49-27.4,0-54.95.82-82.56.52-.27,19.24,0,37.33,0,56C27.71,70,55.22,69.93,82.68,69.93Z"/><path class="cls-2" d="M.29,8.13C.2,10.47.22,12.7.12,15.39c27.63.06,55,0,82.56-.07,0-2.42-.07-5.59-.07-7.57Z"/><path d="M58,12.24a.55.55,0,0,1,0-1.1l3.8-.07h0a.55.55,0,0,1,0,1.1l-3.8.07Z"/><path d="M66.41,12.31a.54.54,0,0,1-.53-.54.54.54,0,0,1,.52-.56l3.8-.07h0a.55.55,0,0,1,0,1.1l-3.8.07Z"/><path class="cls-3" d="M74.55,12.17a.55.55,0,0,1,0-1.1l3.8-.07h0a.54.54,0,0,1,.53.54.54.54,0,0,1-.52.56l-3.8.07Z"/><path class="cls-3" d="M10.12,28.17a.55.55,0,0,1,0-1.1l9.23-.32a.56.56,0,0,1,.55.53.54.54,0,0,1-.52.56l-9.23.33Z"/><path class="cls-3" d="M10.62,39.2a.55.55,0,0,1,0-1.09L23,37.79a.52.52,0,0,1,.54.53.54.54,0,0,1-.51.56l-12.36.32Z"/><path class="cls-3" d="M10.48,50.24a.54.54,0,0,1-.54-.54.54.54,0,0,1,.53-.55l25-.33h0a.54.54,0,0,1,.53.54.55.55,0,0,1-.53.56l-25,.32Z"/><path class="cls-3" d="M10.62,60.11a.54.54,0,0,1-.53-.54.54.54,0,0,1,.53-.55l43.87-.32h0a.54.54,0,0,1,.53.54.54.54,0,0,1-.53.55l-43.87.32Z"/><path class="cls-3" d="M66.05,42.13,77.2,53.4a72.27,72.27,0,0,0,6.07,5.7,6.54,6.54,0,0,0,3.84,1.81A3,3,0,0,0,90,58.06a5,5,0,0,0-1.66-3.16Q79.46,45.27,69.8,36.67C68.63,38.45,67.45,40.22,66.05,42.13Z"/><path class="cls-3" d="M51.54.55C38.73.55,28.35,11.22,28.35,24.38S38.73,48.22,51.54,48.22,74.72,37.54,74.72,24.38,64.34.55,51.54.55Zm0,41.93a17.85,17.85,0,0,1-17.61-18.1,17.62,17.62,0,1,1,35.22,0A17.86,17.86,0,0,1,51.54,42.48Zm0,0a17.85,17.85,0,0,1-17.61-18.1,17.62,17.62,0,1,1,35.22,0A17.86,17.86,0,0,1,51.54,42.48Z"/><path class="cls-3" d="M51.54,48.76c-13.08,0-23.72-10.93-23.72-24.38S38.46,0,51.54,0,75.26,10.94,75.26,24.38,64.62,48.76,51.54,48.76Zm0-47.67c-12.49,0-22.66,10.45-22.66,23.29S39.05,47.67,51.54,47.67,74.19,37.22,74.19,24.38,64,1.09,51.54,1.09Zm0,41.94A18.42,18.42,0,0,1,33.4,24.38,18.42,18.42,0,0,1,51.54,5.73c10,0,18.14,8.37,18.14,18.65S61.54,43,51.54,43ZM34.46,24.38A17.34,17.34,0,0,0,51.54,41.94,17.35,17.35,0,0,0,68.62,24.38,17.34,17.34,0,0,0,51.54,6.83,17.34,17.34,0,0,0,34.46,24.38Z"/><ellipse class="cls-1" cx="51.39" cy="24.57" rx="18.05" ry="18.56"/></g></g></svg>