<svg xmlns="http://www.w3.org/2000/svg" viewBox="0 0 130 150"><defs><style>.cls-1{fill:#fff;}</style></defs><g id="Calque_2" data-name="Calque 2"><g id="page_projet" data-name="page projet"><path class="cls-1" d="M3.84,114.37A3.85,3.85,0,0,1,0,110.5V39.33a3.86,3.86,0,0,1,3.84-3.87,3.85,3.85,0,0,1,3.83,3.87V110.5A3.85,3.85,0,0,1,3.84,114.37Z"/><path class="cls-1" d="M126.16,114.13a3.85,3.85,0,0,1-3.83-3.87V39.12a3.84,3.84,0,1,1,7.67,0v71.14A3.85,3.85,0,0,1,126.16,114.13Z"/><path class="cls-1" d="M3.84,43.2A3.84,3.84,0,0,1,.51,41.26,3.89,3.89,0,0,1,1.92,36L63.09.52a3.82,3.82,0,0,1,5.24,1.42,3.89,3.89,0,0,1-1.41,5.28L5.75,42.68A3.79,3.79,0,0,1,3.84,43.2Z"/><polygon class="cls-1" points="7.67 42.71 7.67 104.36 0 53.74 0 39.33 7.67 42.71"/><polygon class="cls-1" points="122.31 42.71 122.31 104.36 129.98 53.74 129.98 39.33 122.31 42.71"/><polygon class="cls-1" points="8.25 41.23 61.33 10.62 13.93 29.04 1.53 36.2 8.25 41.23"/><path class="cls-1" d="M126.16,42.71a3.83,3.83,0,0,1-1.89-.51l-61.16-35A3.88,3.88,0,0,1,61.67,2,3.82,3.82,0,0,1,66.9.5l61.16,35a3.87,3.87,0,0,1-1.9,7.23Z"/><polygon class="cls-1" points="119.51 39.67 66.52 8.89 113.86 27.47 126.24 34.66 119.51 39.67"/><path class="cls-1" d="M65,78.25a3.73,3.73,0,0,1-1.89-.51l-61.17-35A3.89,3.89,0,0,1,.5,37.42,3.81,3.81,0,0,1,5.73,36L66.9,71a3.89,3.89,0,0,1,1.44,5.27A3.83,3.83,0,0,1,65,78.25Z"/><path class="cls-1" d="M65,78.25a3.82,3.82,0,0,1-3.33-1.94A3.88,3.88,0,0,1,63.09,71l61.16-35.54a3.82,3.82,0,0,1,5.24,1.42,3.89,3.89,0,0,1-1.41,5.28L66.92,77.73A3.79,3.79,0,0,1,65,78.25Z"/><path class="cls-1" d="M65,150a3.84,3.84,0,0,1-1.92-.51L1.92,113.85a3.89,3.89,0,0,1-1.41-5.28,3.84,3.84,0,0,1,5.25-1.42l61.16,35.59A3.88,3.88,0,0,1,68.33,148,3.83,3.83,0,0,1,65,150Z"/><path class="cls-1" d="M127.13,107.62a3.3,3.3,0,0,0-1.32-1.38l-16.19-9.31A3.37,3.37,0,0,0,105,98.2a3.43,3.43,0,0,0,1.26,4.65l16.19,9.3a3.35,3.35,0,0,0,4.61-1.27A3.4,3.4,0,0,0,127.13,107.62Z"/><path class="cls-1" d="M65.09,150a3.83,3.83,0,0,1-3.33-1.93,3.89,3.89,0,0,1,1.41-5.29l61.07-35.84a3.83,3.83,0,0,1,5.25,1.41,3.89,3.89,0,0,1-1.41,5.28L67,149.48A3.79,3.79,0,0,1,65.09,150Z"/><polygon class="cls-1" points="66.13 141.04 119 110.05 79.45 142.18 67.09 149.42 66.13 141.04"/><polygon class="cls-1" points="64.04 141.04 11.17 110.05 50.73 142.18 63.08 149.42 64.04 141.04"/><path class="cls-1" d="M65,150a3.85,3.85,0,0,1-3.83-3.87V74.38a3.84,3.84,0,1,1,7.67,0v71.75A3.85,3.85,0,0,1,65,150Z"/><path class="cls-1" d="M62.27.15h5.59A1.1,1.1,0,0,1,69,1.25v22a0,0,0,0,1,0,0H61.19a0,0,0,0,1,0,0v-22a1.1,1.1,0,0,1,1.1-1.1Z"/><path class="cls-1" d="M61.18,32.83h7.77a0,0,0,0,1,0,0V44.73a1.1,1.1,0,0,1-1.1,1.1H62.27a1.1,1.1,0,0,1-1.1-1.1V32.84A0,0,0,0,1,61.18,32.83Z"/><rect class="cls-1" x="68.96" y="22.9" width="9.84" height="9.92" rx="0.11"/></g></g></svg>