<svg xmlns="http://www.w3.org/2000/svg" viewBox="0 0 90 50"><defs><style>.cls-1{fill:#92debc;}.cls-2{fill:#00ce7c;}.cls-3{fill:#fff;}</style></defs><g id="Calque_2" data-name="Calque 2"><g id="landing"><path class="cls-1" d="M35.5,7.46,17.58.69A10.51,10.51,0,0,0,4.27,6L.74,14.27A9.44,9.44,0,0,0,6.41,26.76l17.91,6.77A10.5,10.5,0,0,0,37.63,28.2L41.17,20A9.44,9.44,0,0,0,35.5,7.46ZM32,26.08a4.32,4.32,0,0,1-5.42,2.17L8.67,21.48a3.88,3.88,0,0,1-2.31-5.09L9.9,8.14A4.32,4.32,0,0,1,15.32,6l17.91,6.76a3.9,3.9,0,0,1,2.32,5.09Z"/><path class="cls-2" d="M86.46,43.45l3-8.44A9.49,9.49,0,0,0,83,22.86L64.71,17.1c-5.34-1.67-11.16,1-12.95,6.06l-3,8.44A9.51,9.51,0,0,0,55.2,43.75l18.31,5.76C78.85,51.18,84.68,48.46,86.46,43.45Zm-11,.66L57.13,38.35a3.91,3.91,0,0,1-2.63-5l3-8.44a4.28,4.28,0,0,1,5.27-2.46L81.1,28.25a3.91,3.91,0,0,1,2.62,5l-3,8.44A4.29,4.29,0,0,1,75.44,44.11Z"/><path class="cls-3" d="M54.39,32.21,31,23.37A3.21,3.21,0,0,1,29,19.12l.11-.26a3.55,3.55,0,0,1,4.52-1.8L57.1,25.9A3.2,3.2,0,0,1,59,30.15l-.11.25A3.56,3.56,0,0,1,54.39,32.21Z"/></g></g></svg>