<svg xmlns="http://www.w3.org/2000/svg" viewBox="0 0 135 180"><defs><style>.cls-1{fill:#7ed958;}.cls-2{fill:#fff;}.cls-3{fill:#e6f7de;}</style></defs><g id="Calque_2" data-name="Calque 2"><g id="Reference_Architecture" data-name="Reference Architecture"><g id="_26._City_Data" data-name=" 26. City Data"><path class="cls-1" d="M123.78,102.41V131.1c0,12.68-25.68,23-57.06,23s-57.06-10.27-57.06-23V102.41c0,21.29,67.59,31.56,101.59,14.34C119.1,112.82,123.78,107.83,123.78,102.41Z"/><path class="cls-2" d="M66.72,145.51c-31.38,0-57.06-10.27-57.06-22.95v8.61c0,12.68,25.68,23,57.06,23s57.06-10.27,57.06-23v-8.61C123.78,135.24,98.25,145.51,66.72,145.51Z"/><path class="cls-1" d="M123.78,73.52v28.69c0,12.68-25.68,23-57.06,23s-57.06-10.28-57.06-23V73.52c0,21.29,67.59,31.56,101.59,14.35C119.1,83.94,123.78,78.94,123.78,73.52Z"/><path class="cls-2" d="M66.72,116.63c-31.38,0-57.06-10.27-57.06-23v8.61c0,12.68,25.68,23,57.06,23s57.06-10.27,57.06-23V93.67C123.78,106.36,98.25,116.63,66.72,116.63Z"/><ellipse class="cls-3" cx="66.06" cy="73.35" rx="57.45" ry="23.11"/><path class="cls-2" d="M66.06,87.79C38,87.79,14.71,79.7,9.65,69a10.18,10.18,0,0,0-1,4.34c0,12.76,25.85,23.11,57.44,23.11s57.45-10.35,57.45-23.11a10.18,10.18,0,0,0-1-4.34C117.42,79.7,94.1,87.79,66.06,87.79Z"/><path class="cls-1" d="M98.16,78H58.57V8.67L98.16,0Z"/><path class="cls-2" d="M68.94,24.13H86.17A2.72,2.72,0,0,0,89,21.35c0-1.6-1.28-2.89-2.87-1.91H68.94c-1.59-1-2.88.31-2.88,1.91A2.73,2.73,0,0,0,68.94,24.13Z"/><path class="cls-2" d="M86.17,31.15H68.94c-1.59-1.13-2.88.16-2.88,1.75a3,3,0,0,0,2.88,2.94H86.17A3,3,0,0,0,89,32.9C89,31.31,87.76,30,86.17,31.15Z"/><path class="cls-2" d="M86.17,42.86H74.68c-1.59-1.29-2.87,0-2.87,1.6a3.2,3.2,0,0,0,2.87,3.09H86.17A3.2,3.2,0,0,0,89,44.46C89,42.86,87.76,41.57,86.17,42.86Z"/><path class="cls-2" d="M86.17,54.57H74.68c-1.59-1.44-2.87-.15-2.87,1.44a3.49,3.49,0,0,0,2.87,3.25H86.17A3.49,3.49,0,0,0,89,56C89,54.42,87.76,53.13,86.17,54.57Z"/><path class="cls-2" d="M42.81,33.49H72a2.88,2.88,0,0,1,2.87,2.89v44H39.94v-44A2.88,2.88,0,0,1,42.81,33.49Z"/><path class="cls-1" d="M51.7,47.55H63.19a3.2,3.2,0,0,0,2.87-3.09c0-1.6-1.28-2.89-2.87-1.6H51.7c-1.58-1.29-2.87,0-2.87,1.6A3.21,3.21,0,0,0,51.7,47.55Z"/><path class="cls-1" d="M63.19,54.57H51.7c-1.58-1.44-2.87-.15-2.87,1.44a3.5,3.5,0,0,0,2.87,3.25H63.19A3.49,3.49,0,0,0,66.06,56C66.06,54.42,64.78,53.13,63.19,54.57Z"/><path class="cls-1" d="M63.19,66.28H51.7c-1.58-1.6-2.87-.31-2.87,1.29A3.82,3.82,0,0,0,51.7,71H63.19a3.81,3.81,0,0,0,2.87-3.4C66.06,66,64.78,64.68,63.19,66.28Z"/><path class="cls-2" d="M8.62,44.46a2.89,2.89,0,1,0,2.87,2.89A2.88,2.88,0,0,0,8.62,44.46Z"/><path class="cls-2" d="M20.11,44.46A2.89,2.89,0,1,0,23,47.35,2.88,2.88,0,0,0,20.11,44.46Z"/><path class="cls-1" d="M109.15,44.46A2.89,2.89,0,1,0,112,47.35,2.87,2.87,0,0,0,109.15,44.46Z"/><path class="cls-1" d="M109.15,32.9a2.89,2.89,0,0,0,0,5.78,8.64,8.64,0,0,1,8.62,8.67,2.87,2.87,0,1,0,5.74,0A14.41,14.41,0,0,0,109.15,32.9Z"/><path class="cls-1" d="M109.15,21.35a2.89,2.89,0,0,0,0,5.78,20.17,20.17,0,0,1,20.11,20.22,2.87,2.87,0,1,0,5.74,0A25.92,25.92,0,0,0,109.15,21.35Z"/><rect class="cls-3" x="8.23" y="169.26" width="115.51" height="4.15"/><ellipse class="cls-1" cx="8.62" cy="171.33" rx="8.62" ry="8.67"/><ellipse class="cls-1" cx="123.51" cy="171.33" rx="8.62" ry="8.67"/><path class="cls-1" d="M51.58,165.48h28v11.71H51.58Z"/></g></g></g></svg>