<svg xmlns="http://www.w3.org/2000/svg" viewBox="0 0 68 90"><defs><style>.cls-1{fill:#7ed958;}.cls-2{fill:#17214e;}.cls-3{fill:#fff;}.cls-4{fill:#f5f7ff;}</style></defs><g id="Calque_2" data-name="Calque 2"><g id="LANDING_V2" data-name="LANDING V2"><g id="_26._City_Data" data-name=" 26. City Data"><path class="cls-1" d="M62.35,51.2V65.55C62.35,71.89,49.41,77,33.61,77S4.87,71.89,4.87,65.55V51.2c0,10.65,34,15.78,51.17,7.18C60,56.41,62.35,53.92,62.35,51.2Z"/><path class="cls-2" d="M33.61,72.76c-15.81,0-28.74-5.14-28.74-11.48v4.3c0,6.34,12.93,11.48,28.74,11.48s28.74-5.14,28.74-11.48v-4.3C62.35,67.62,49.49,72.76,33.61,72.76Z"/><path class="cls-1" d="M62.35,36.76V51.11c0,6.34-12.94,11.47-28.74,11.47S4.87,57.45,4.87,51.11V36.76c0,10.65,34,15.78,51.17,7.17C60,42,62.35,39.47,62.35,36.76Z"/><path class="cls-2" d="M33.61,58.31c-15.81,0-28.74-5.13-28.74-11.47v4.3c0,6.34,12.93,11.48,28.74,11.48s28.74-5.14,28.74-11.48v-4.3C62.35,53.18,49.49,58.31,33.61,58.31Z"/><ellipse class="cls-2" cx="33.28" cy="36.67" rx="28.94" ry="11.55"/><path class="cls-2" d="M33.28,43.89c-14.12,0-25.87-4-28.42-9.38a5.05,5.05,0,0,0-.52,2.16c0,6.39,13,11.56,28.94,11.56s28.93-5.17,28.93-11.56a5.05,5.05,0,0,0-.52-2.16C59.15,39.85,47.4,43.89,33.28,43.89Z"/><path class="cls-1" d="M49.44,39H29.5V4.33L49.44,0Z"/><path class="cls-3" d="M34.72,12.06H43.4a1.36,1.36,0,0,0,1.45-1.38c0-.8-.65-1.45-1.45-1H34.72c-.8-.49-1.44.16-1.44,1A1.35,1.35,0,0,0,34.72,12.06Z"/><path class="cls-3" d="M43.4,15.58H34.72c-.8-.57-1.44.07-1.44.87a1.47,1.47,0,0,0,1.44,1.47H43.4a1.48,1.48,0,0,0,1.45-1.47C44.85,15.65,44.2,15,43.4,15.58Z"/><path class="cls-3" d="M43.4,21.43H37.62c-.8-.64-1.45,0-1.45.8a1.6,1.6,0,0,0,1.45,1.54H43.4a1.6,1.6,0,0,0,1.45-1.54C44.85,21.43,44.2,20.79,43.4,21.43Z"/><path class="cls-3" d="M43.4,27.29H37.62c-.8-.73-1.45-.08-1.45.72a1.76,1.76,0,0,0,1.45,1.62H43.4A1.76,1.76,0,0,0,44.85,28C44.85,27.21,44.2,26.56,43.4,27.29Z"/><path class="cls-4" d="M21.56,16.75H36.27a1.43,1.43,0,0,1,1.44,1.44v22H20.12v-22A1.44,1.44,0,0,1,21.56,16.75Z"/><path class="cls-2" d="M26,23.77h5.79a1.6,1.6,0,0,0,1.45-1.54c0-.8-.65-1.44-1.45-.8H26c-.8-.64-1.44,0-1.44.8A1.59,1.59,0,0,0,26,23.77Z"/><path class="cls-2" d="M31.83,27.29H26c-.8-.73-1.44-.08-1.44.72A1.75,1.75,0,0,0,26,29.63h5.79A1.76,1.76,0,0,0,33.28,28C33.28,27.21,32.63,26.56,31.83,27.29Z"/><path class="cls-2" d="M31.83,33.14H26c-.8-.8-1.44-.15-1.44.64A1.89,1.89,0,0,0,26,35.48h5.79a1.9,1.9,0,0,0,1.45-1.7C33.28,33,32.63,32.34,31.83,33.14Z"/><path class="cls-2" d="M4.34,22.23a1.45,1.45,0,1,0,1.45,1.44A1.45,1.45,0,0,0,4.34,22.23Z"/><path class="cls-2" d="M10.13,22.23a1.45,1.45,0,1,0,1.44,1.44A1.45,1.45,0,0,0,10.13,22.23Z"/><path class="cls-1" d="M55,22.23a1.45,1.45,0,1,0,1.45,1.44A1.45,1.45,0,0,0,55,22.23Z"/><path class="cls-1" d="M55,16.45a1.45,1.45,0,1,0,0,2.89,4.33,4.33,0,0,1,4.34,4.33,1.45,1.45,0,1,0,2.89,0A7.23,7.23,0,0,0,55,16.45Z"/><path class="cls-1" d="M55,10.68a1.44,1.44,0,1,0,0,2.88A10.13,10.13,0,0,1,65.11,23.67a1.45,1.45,0,1,0,2.89,0A13,13,0,0,0,55,10.68Z"/><rect class="cls-2" x="4.14" y="84.63" width="58.18" height="2.07"/><ellipse class="cls-1" cx="4.34" cy="85.67" rx="4.34" ry="4.33"/><ellipse class="cls-1" cx="62.21" cy="85.67" rx="4.34" ry="4.33"/><path class="cls-1" d="M26,82.74H40.06v5.85H26Z"/></g></g></g></svg>