<svg xmlns="http://www.w3.org/2000/svg" viewBox="0 0 96.35 90"><defs><style>.cls-1{fill:#17214e;}.cls-2{fill:#7ed958;}.cls-3{fill:#fff;}</style></defs><g id="Calque_2" data-name="Calque 2"><g id="LANDING_V2" data-name="LANDING V2"><path class="cls-1" d="M79.8,35.21a1.48,1.48,0,0,0-1.27-.72H17.8a1.41,1.41,0,0,0-1.2.68L10,46h3.2l5.71-9.42H77.8l5.71,10.47h3.65Z"/><path class="cls-1" d="M48.7,48.36a1.57,1.57,0,0,1-1.57-1.57V22.55a1.57,1.57,0,1,1,3.14,0V46.79A1.57,1.57,0,0,1,48.7,48.36Z"/><circle class="cls-2" cx="48.28" cy="11.74" r="11.74"/><circle class="cls-1" cx="48.28" cy="11.74" r="5"/><path class="cls-2" d="M21.49,90H1.55A1.54,1.54,0,0,1,0,88.45V47.56A1.55,1.55,0,0,1,1.55,46H21.49A1.55,1.55,0,0,1,23,47.56V88.45A1.54,1.54,0,0,1,21.49,90Z"/><path class="cls-2" d="M58.16,90h-20a1.54,1.54,0,0,1-1.54-1.55V47.56A1.55,1.55,0,0,1,38.2,46H58.15a1.56,1.56,0,0,1,1.55,1.55V88.47A1.54,1.54,0,0,1,58.16,90Z"/><path class="cls-2" d="M94.8,90H74.86a1.54,1.54,0,0,1-1.55-1.55V47.56A1.55,1.55,0,0,1,74.86,46H94.8a1.55,1.55,0,0,1,1.55,1.55V88.45A1.54,1.54,0,0,1,94.8,90Z"/><path class="cls-3" d="M9,57.53H5.86a1.57,1.57,0,0,1,0-3.14H9a1.57,1.57,0,0,1,0,3.14Z"/><path class="cls-3" d="M18.59,64.86H5.47a1.57,1.57,0,0,1,0-3.14H18.59a1.57,1.57,0,0,1,0,3.14Z"/><path class="cls-3" d="M18.59,70.1H5.47a1.57,1.57,0,1,1,0-3.14H18.59a1.57,1.57,0,0,1,0,3.14Z"/><path class="cls-3" d="M18.59,74.29H5.47a1.57,1.57,0,1,1,0-3.14H18.59a1.57,1.57,0,1,1,0,3.14Z"/><path class="cls-3" d="M18.59,79.53H5.47a1.57,1.57,0,1,1,0-3.14H18.59a1.57,1.57,0,1,1,0,3.14Z"/><path class="cls-3" d="M45.22,57.53H42.1a1.57,1.57,0,0,1,0-3.14h3.12a1.57,1.57,0,0,1,0,3.14Z"/><path class="cls-3" d="M54.84,64.86H41.72a1.57,1.57,0,0,1,0-3.14H54.84a1.57,1.57,0,0,1,0,3.14Z"/><path class="cls-3" d="M54.84,70.1H41.72a1.57,1.57,0,0,1,0-3.14H54.84a1.57,1.57,0,1,1,0,3.14Z"/><path class="cls-3" d="M54.84,74.29H41.72a1.57,1.57,0,1,1,0-3.14H54.84a1.57,1.57,0,1,1,0,3.14Z"/><path class="cls-3" d="M54.84,79.53H41.72a1.57,1.57,0,1,1,0-3.14H54.84a1.57,1.57,0,1,1,0,3.14Z"/><path class="cls-1" d="M81.46,57.53H78.35a1.57,1.57,0,1,1,0-3.14h3.11a1.57,1.57,0,1,1,0,3.14Z"/><path class="cls-1" d="M91.09,64.86H78a1.57,1.57,0,1,1,0-3.14H91.09a1.57,1.57,0,0,1,0,3.14Z"/><path class="cls-1" d="M91.09,70.1H78A1.57,1.57,0,0,1,78,67H91.09a1.57,1.57,0,0,1,0,3.14Z"/><path class="cls-1" d="M91.09,74.29H78a1.57,1.57,0,1,1,0-3.14H91.09a1.57,1.57,0,1,1,0,3.14Z"/><path class="cls-1" d="M91.09,79.53H78a1.57,1.57,0,1,1,0-3.14H91.09a1.57,1.57,0,0,1,0,3.14Z"/></g></g></svg>