<svg xmlns="http://www.w3.org/2000/svg" viewBox="0 0 193 180"><defs><style>.cls-1{fill:#e6f7de;}.cls-2{fill:#7ed958;}.cls-3{fill:#fff;}</style></defs><g id="Calque_2" data-name="Calque 2"><g id="use_case" data-name="use case"><path class="cls-1" d="M159.85,70.41A3,3,0,0,0,157.31,69H35.66a2.81,2.81,0,0,0-2.4,1.35L20,92h6.39L37.82,73.18h118l11.43,20.94h7.3Z"/><path class="cls-1" d="M97.55,96.72a3.15,3.15,0,0,1-3.15-3.15V45.11a3.15,3.15,0,0,1,6.3,0V93.57A3.15,3.15,0,0,1,97.55,96.72Z"/><ellipse class="cls-2" cx="96.71" cy="23.48" rx="23.52" ry="23.48"/><ellipse class="cls-1" cx="96.71" cy="23.48" rx="10.02" ry="10"/><path class="cls-2" d="M43.05,180H3.1A3.1,3.1,0,0,1,0,176.91V95.12A3.09,3.09,0,0,1,3.1,92H43.05a3.09,3.09,0,0,1,3.1,3.09v81.79A3.1,3.1,0,0,1,43.05,180Z"/><path class="cls-2" d="M116.49,180h-40a3.1,3.1,0,0,1-3.1-3.09V95.12A3.09,3.09,0,0,1,76.52,92h40a3.09,3.09,0,0,1,3.1,3.09v81.81A3.07,3.07,0,0,1,116.49,180Z"/><path class="cls-2" d="M189.9,180H150a3.1,3.1,0,0,1-3.1-3.09V95.12A3.09,3.09,0,0,1,150,92h40a3.09,3.09,0,0,1,3.1,3.09v81.79A3.1,3.1,0,0,1,189.9,180Z"/><path class="cls-3" d="M18,115.07H11.73a3.15,3.15,0,1,1,0-6.29H18a3.15,3.15,0,0,1,0,6.29Z"/><path class="cls-3" d="M37.25,129.73H11a3.14,3.14,0,0,1,0-6.28H37.25a3.14,3.14,0,1,1,0,6.28Z"/><path class="cls-3" d="M37.25,140.2H11a3.14,3.14,0,1,1,0-6.28H37.25a3.14,3.14,0,0,1,0,6.28Z"/><path class="cls-3" d="M37.25,148.58H11a3.14,3.14,0,1,1,0-6.28H37.25a3.14,3.14,0,0,1,0,6.28Z"/><path class="cls-3" d="M37.25,159.05H11a3.14,3.14,0,0,1,0-6.28H37.25a3.14,3.14,0,0,1,0,6.28Z"/><path class="cls-3" d="M90.57,115.07H84.34a3.15,3.15,0,1,1,0-6.29h6.23a3.15,3.15,0,1,1,0,6.29Z"/><path class="cls-3" d="M109.85,129.73H83.57a3.14,3.14,0,1,1,0-6.28h26.28a3.14,3.14,0,1,1,0,6.28Z"/><path class="cls-3" d="M109.85,140.2H83.57a3.14,3.14,0,1,1,0-6.28h26.28a3.14,3.14,0,1,1,0,6.28Z"/><path class="cls-3" d="M109.85,148.58H83.57a3.14,3.14,0,1,1,0-6.28h26.28a3.14,3.14,0,1,1,0,6.28Z"/><path class="cls-3" d="M109.85,159.05H83.57a3.14,3.14,0,1,1,0-6.28h26.28a3.14,3.14,0,1,1,0,6.28Z"/><path class="cls-1" d="M163.18,115.07h-6.24a3.15,3.15,0,1,1,0-6.29h6.24a3.15,3.15,0,0,1,0,6.29Z"/><path class="cls-1" d="M182.46,129.73H156.17a3.14,3.14,0,1,1,0-6.28h26.29a3.14,3.14,0,0,1,0,6.28Z"/><path class="cls-1" d="M182.46,140.2H156.17a3.14,3.14,0,0,1,0-6.28h26.29a3.14,3.14,0,0,1,0,6.28Z"/><path class="cls-1" d="M182.46,148.58H156.17a3.14,3.14,0,1,1,0-6.28h26.29a3.14,3.14,0,0,1,0,6.28Z"/><path class="cls-1" d="M182.46,159.05H156.17a3.14,3.14,0,1,1,0-6.28h26.29a3.14,3.14,0,1,1,0,6.28Z"/></g></g></svg>