<svg xmlns="http://www.w3.org/2000/svg" viewBox="0 0 114 90"><defs><style>.cls-1{fill:#fff;}.cls-2{fill:#17214e;}.cls-3,.cls-4{fill:#7ed958;}.cls-4{fill-rule:evenodd;}</style></defs><g id="Calque_2" data-name="Calque 2"><g id="LANDING_V2" data-name="LANDING V2"><circle class="cls-1" cx="44.95" cy="43.58" r="24.31"/><path class="cls-2" d="M38.1,12.25a3.07,3.07,0,0,0,2.39-1.81V3.9c-.59-.16-.3.12-.3.12h5.88s.3-.28.45-.12v6.54a1.6,1.6,0,0,0,1.65,1.81,3,3,0,0,0,2.37-1.81V3.9A4.89,4.89,0,0,0,46.07,0H40.19a3.65,3.65,0,0,0-3.72,3.9v6.54a1.57,1.57,0,0,0,1.63,1.81Z"/><path class="cls-2" d="M87.05,70.34H82.73a2,2,0,0,0,0,4h2V88.2A2.92,2.92,0,0,0,87.05,90a1.64,1.64,0,0,0,1.68-1.8V72.36a1.64,1.64,0,0,0-1.68-1.81Z"/><path class="cls-2" d="M69.64,70.34H63.49a3.91,3.91,0,0,0-3.91,3.91V85.53a3.91,3.91,0,0,0,3.91,3.91h6.26a3.91,3.91,0,0,0,3.9-3.91V74.18a3.93,3.93,0,0,0-4-3.84Zm-.3,16.08H63.9a.3.3,0,0,1-.3-.29V74.66a.31.31,0,0,1,.3-.3h5.44a.3.3,0,0,1,.29.3V86.13A.29.29,0,0,1,69.34,86.42Z"/><path class="cls-2" d="M61.85,4h2.76V17.64a1.5,1.5,0,0,0,1.56,1.81,3.26,3.26,0,0,0,2.46-1.81V1.8A3.27,3.27,0,0,0,66.17,0H61.85a1.81,1.81,0,0,0-1.8,1.8A2.6,2.6,0,0,0,61.85,4Z"/><path class="cls-2" d="M86.83,0H80.57a3.9,3.9,0,0,0-3.9,3.9V15.19a3.89,3.89,0,0,0,3.9,3.9h6.26a3.89,3.89,0,0,0,3.9-3.9V3.9A3.9,3.9,0,0,0,86.83,0Zm-.41,16.08H81a.29.29,0,0,1-.29-.3V4.32A.29.29,0,0,1,81,4h5.44a.3.3,0,0,1,.3.3V15.78A.3.3,0,0,1,86.42,16.08Z"/><path class="cls-2" d="M7.86,43.92a3.36,3.36,0,0,0,2.49-1.8V26.28a5.5,5.5,0,0,0-2.49-2.16H3.54a2.47,2.47,0,0,0-1.8,2.16,1.88,1.88,0,0,0,1.8,1.86H6.33v14A1.45,1.45,0,0,0,7.86,43.92Z"/><path class="cls-2" d="M86.19,48.24h-6a3.53,3.53,0,0,0-3.54,3.54v12a3.54,3.54,0,0,0,3.54,3.54h6a3.54,3.54,0,0,0,3.54-3.54v-12A3.53,3.53,0,0,0,86.19,48.24Zm-.13,16.07H80.34a.66.66,0,0,1-.66-.66V51.91a.67.67,0,0,1,.66-.66h5.72a.67.67,0,0,1,.66.66V63.65A.66.66,0,0,1,86.06,64.31Z"/><path class="cls-2" d="M85.61,43.92a2.35,2.35,0,0,0,2.11-1.8V26.28a3.43,3.43,0,0,0-2.11-2.16H81.29a2.47,2.47,0,0,0-1.8,2.16,1.88,1.88,0,0,0,1.8,1.86H83.7v14a2,2,0,0,0,1.91,1.8Z"/><path class="cls-2" d="M10.46,0H4.2A3.9,3.9,0,0,0,.3,3.9V15.19a3.89,3.89,0,0,0,3.9,3.9h6.26a3.89,3.89,0,0,0,3.9-3.9V3.9A3.9,3.9,0,0,0,10.46,0Zm-.41,16.08H4.61a.29.29,0,0,1-.29-.3V4.32A.29.29,0,0,1,4.61,4h5.44a.3.3,0,0,1,.3.3V15.78A.3.3,0,0,1,10.05,16.08Z"/><path class="cls-2" d="M21.54,4h1.87V17.64a3.21,3.21,0,0,0,2.45,1.81,1.51,1.51,0,0,0,1.57-1.81V1.8A1.51,1.51,0,0,0,25.86,0H21.54a1.81,1.81,0,0,0-1.81,1.8A2.59,2.59,0,0,0,21.54,4Z"/><path class="cls-2" d="M7.86,70.34H3.54a2,2,0,0,0,0,4H6.33V88.2A1.46,1.46,0,0,0,7.86,90a3.38,3.38,0,0,0,2.49-1.8V72.36a3.37,3.37,0,0,0-2.49-1.81Z"/><path class="cls-2" d="M27.44,70.34H21.28a3.91,3.91,0,0,0-3.9,3.91V85.53a3.91,3.91,0,0,0,3.9,3.91h6.26a3.91,3.91,0,0,0,3.91-3.91V74.18a3.93,3.93,0,0,0-4-3.84Zm-.31,16.08H21.7a.29.29,0,0,1-.3-.29V74.66a.3.3,0,0,1,.3-.3h5.43a.3.3,0,0,1,.3.3V86.13A.29.29,0,0,1,27.13,86.42Z"/><path class="cls-3" d="M45.29,17.64A25.92,25.92,0,1,0,71.21,43.56,25.94,25.94,0,0,0,45.29,17.64ZM42.72,59.29H33.24a4.81,4.81,0,0,1-4.81-4.81V35a4.8,4.8,0,0,1,4.81-4.8h9.48A4.81,4.81,0,0,1,47.53,35V54.48A4.81,4.81,0,0,1,42.72,59.29Zm17.87-.5a1.51,1.51,0,1,1-3,0V33.16H52.3a1.51,1.51,0,1,1,0-3h6.85a1.44,1.44,0,0,1,1.44,1.44v27.2Z"/><path class="cls-3" d="M42.57,33.16H33.38a1.93,1.93,0,0,0-1.93,1.93V54.35a1.93,1.93,0,0,0,1.93,1.93h9.2a1.93,1.93,0,0,0,1.93-1.93V35.1a1.94,1.94,0,0,0-1.94-1.94Z"/><path class="cls-3" d="M41.48,71.27a.77.77,0,0,1,0,.15V83.5a4,4,0,1,0,8,.09V71.42s0-.1,0-.15a31.44,31.44,0,0,1-8.07,0Z"/><path class="cls-2" d="M10.17,48H3.9A3.91,3.91,0,0,0,0,51.93V63.22a3.9,3.9,0,0,0,3.9,3.9h6.27a3.9,3.9,0,0,0,3.9-3.9V51.93A3.91,3.91,0,0,0,10.17,48ZM9.75,64.11H4.32a.29.29,0,0,1-.3-.3V52.35a.29.29,0,0,1,.3-.3H9.75a.29.29,0,0,1,.3.3V63.81A.29.29,0,0,1,9.75,64.11Z"/><path class="cls-4" d="M113.59,10.77l-6.53-8.71a2.18,2.18,0,0,0-3.48,0l-6.52,8.71a2.18,2.18,0,0,0,1.59,3.5,2.16,2.16,0,0,0,1.89-.88l2.6-3.47V29.53a2.3,2.3,0,0,0,0,.26V85.41a1.7,1.7,0,0,0,1.7,1.7H106a1.7,1.7,0,0,0,1.69-1.7V10.8a1.74,1.74,0,0,0-.2-.79V9.9l2.62,3.49a2.16,2.16,0,0,0,1.71.84A2.19,2.19,0,0,0,114,12.05,2.17,2.17,0,0,0,113.59,10.77Z"/></g></g></svg>