<svg xmlns="http://www.w3.org/2000/svg" viewBox="0 0 228 180"><defs><style>.cls-1{fill:#fff;}.cls-2,.cls-3{fill:#7ed958;}.cls-3{fill-rule:evenodd;}</style></defs><g id="Calque_2" data-name="Calque 2"><g id="Priority_dataset" data-name="Priority dataset"><circle class="cls-1" cx="89.9" cy="87.16" r="48.61"/><path class="cls-1" d="M76.19,24.49c2,0,3.61-1.61,4.79-3.6V7.81c-1.18-.33-.59.23-.59.23H92.15s.59-.56.89-.23V20.89a3.2,3.2,0,0,0,3.31,3.6c2,0,3.6-1.61,4.73-3.6V7.81C100,3.5,96.45,0,92.15,0H80.39a7.31,7.31,0,0,0-7.45,7.81V20.89a3.12,3.12,0,0,0,3.25,3.6Z"/><path class="cls-1" d="M174.1,140.69h-8.64a4,4,0,0,0,0,8h3.95v27.66c1.08,2,2.7,3.61,4.69,3.61a3.26,3.26,0,0,0,3.35-3.61V144.72a3.26,3.26,0,0,0-3.35-3.61Z"/><path class="cls-1" d="M139.28,140.69H127a7.8,7.8,0,0,0-7.8,7.8v22.58a7.8,7.8,0,0,0,7.8,7.8H139.5a7.8,7.8,0,0,0,7.8-7.8V148.35a7.86,7.86,0,0,0-8-7.66Zm-.61,32.16H127.8a.59.59,0,0,1-.59-.6V149.32a.58.58,0,0,1,.59-.59h10.87a.59.59,0,0,1,.6.59v22.93A.6.6,0,0,1,138.67,172.85Z"/><path class="cls-1" d="M123.7,8h5.52V35.28a3,3,0,0,0,3.12,3.61c2,0,3.61-1.61,4.92-3.61V3.61C136,1.61,134.34,0,132.34,0H123.7a3.6,3.6,0,0,0-3.6,3.61C120.1,5.6,121.71,7.21,123.7,8Z"/><path class="cls-1" d="M173.66,0H161.14a7.81,7.81,0,0,0-7.81,7.81V30.38a7.81,7.81,0,0,0,7.81,7.81h12.52a7.81,7.81,0,0,0,7.81-7.81V7.81A7.81,7.81,0,0,0,173.66,0Zm-.82,32.16H162a.6.6,0,0,1-.6-.6V8.63A.59.59,0,0,1,162,8h10.87a.59.59,0,0,1,.59.59V31.56A.6.6,0,0,1,172.84,32.16Z"/><path class="cls-1" d="M15.72,87.85c2,0,3.6-1.62,5-3.61V52.56a10.83,10.83,0,0,0-5-4.32H7.08c-2,.72-3.61,2.33-3.61,4.32a3.79,3.79,0,0,0,3.61,3.72h5.57v28A2.93,2.93,0,0,0,15.72,87.85Z"/><path class="cls-1" d="M172.38,96.47h-12a7.08,7.08,0,0,0-7.08,7.08v24a7.08,7.08,0,0,0,7.08,7.08h12a7.08,7.08,0,0,0,7.08-7.08v-24A7.08,7.08,0,0,0,172.38,96.47Zm-.27,32.16H160.68a1.32,1.32,0,0,1-1.32-1.32V103.82a1.33,1.33,0,0,1,1.32-1.32h11.43a1.33,1.33,0,0,1,1.32,1.32v23.49A1.33,1.33,0,0,1,172.11,128.63Z"/><path class="cls-1" d="M171.22,87.85a4.72,4.72,0,0,0,4.22-3.61V52.56a6.86,6.86,0,0,0-4.22-4.32h-8.64c-2,.72-3.61,2.33-3.61,4.32a3.79,3.79,0,0,0,3.61,3.72h4.82v28a4,4,0,0,0,3.82,3.61Z"/><path class="cls-1" d="M20.92,0H8.4A7.81,7.81,0,0,0,.59,7.81V30.38A7.81,7.81,0,0,0,8.4,38.19H20.92a7.81,7.81,0,0,0,7.81-7.81V7.81A7.81,7.81,0,0,0,20.92,0ZM20.1,32.16H9.23a.6.6,0,0,1-.6-.6V8.63A.59.59,0,0,1,9.23,8H20.1a.59.59,0,0,1,.59.59V31.56A.6.6,0,0,1,20.1,32.16Z"/><path class="cls-1" d="M43.07,8h3.75V35.28c1.29,2,2.9,3.61,4.89,3.61a3,3,0,0,0,3.15-3.61V3.61A3,3,0,0,0,51.71,0H43.07a3.6,3.6,0,0,0-3.6,3.61C39.47,5.6,41.08,7.21,43.07,8Z"/><path class="cls-1" d="M15.72,140.69H7.08a4,4,0,0,0,0,8h5.57v27.66A2.93,2.93,0,0,0,15.72,180c2,0,3.6-1.61,5-3.61V144.72c-1.37-2-3-3.61-5-3.61Z"/><path class="cls-1" d="M54.87,140.69H42.56a7.8,7.8,0,0,0-7.8,7.8v22.58a7.8,7.8,0,0,0,7.8,7.8H55.09a7.8,7.8,0,0,0,7.8-7.8V148.35a7.85,7.85,0,0,0-8-7.66Zm-.61,32.16H43.39a.59.59,0,0,1-.59-.6V149.32a.58.58,0,0,1,.59-.59H54.26a.59.59,0,0,1,.6.59v22.93A.6.6,0,0,1,54.26,172.85Z"/><path class="cls-2" d="M90.59,35.28a51.84,51.84,0,1,0,51.83,51.84A51.9,51.9,0,0,0,90.59,35.28Zm-5.15,83.3h-19A9.61,9.61,0,0,1,56.87,109V69.91a9.62,9.62,0,0,1,9.61-9.62h19a9.62,9.62,0,0,1,9.61,9.62V109A9.61,9.61,0,0,1,85.44,118.58Zm35.74-1a3,3,0,0,1-6,0V66.32H104.6a3,3,0,1,1,0-6h13.7a2.88,2.88,0,0,1,2.88,2.88v54.42Z"/><path class="cls-2" d="M85.14,66.32H66.75a3.86,3.86,0,0,0-3.86,3.86v38.51a3.86,3.86,0,0,0,3.86,3.86H85.17A3.85,3.85,0,0,0,89,108.7V70.19a3.88,3.88,0,0,0-3.88-3.87Z"/><path class="cls-2" d="M83,142.54c0,.1,0,.2,0,.3V167a8,8,0,1,0,16.08.17V142.84c0-.1,0-.2,0-.3a62.88,62.88,0,0,1-16.14,0Z"/><path class="cls-1" d="M20.33,96.06H7.81A7.8,7.8,0,0,0,0,103.87v22.57a7.81,7.81,0,0,0,7.81,7.81H20.33a7.81,7.81,0,0,0,7.81-7.81V103.87A7.81,7.81,0,0,0,20.33,96.06Zm-.83,32.16H8.63a.59.59,0,0,1-.59-.6V104.69a.58.58,0,0,1,.59-.59H19.5a.59.59,0,0,1,.6.59v22.93A.6.6,0,0,1,19.5,128.22Z"/><path class="cls-3" d="M227.17,21.54l-13-17.42a4.35,4.35,0,0,0-7,0l-13,17.42a4.36,4.36,0,0,0,3.18,7,4.31,4.31,0,0,0,3.78-1.77l5.21-6.94V59.07a4.4,4.4,0,0,0,.05.51V170.82a3.4,3.4,0,0,0,3.39,3.39H212a3.39,3.39,0,0,0,3.39-3.39V21.59A3.29,3.29,0,0,0,215,20v-.24l5.23,7a4.35,4.35,0,0,0,7-5.23Z"/></g></g></svg>