<svg xmlns="http://www.w3.org/2000/svg" viewBox="0 0 180 180"><defs><style>.cls-1{fill:#e6f7de;}.cls-2{fill:#17214e;}.cls-3{fill:#80cf00;}.cls-4{fill:#fff;}</style></defs><g id="Calque_2" data-name="Calque 2"><g id="Roadmap_for_implementing_DS4SSCC" data-name="Roadmap for implementing DS4SSCC"><circle class="cls-1" cx="149.74" cy="149.6" r="19.5"/><circle class="cls-2" cx="30.24" cy="30.1" r="29"/><path class="cls-3" d="M30.31,60.61A30.31,30.31,0,1,0,0,30.31,30.33,30.33,0,0,0,30.31,60.61ZM18.19,16.25l7.46-7.46L47.17,30.31,25.65,51.82l-7.46-7.45L32.25,30.31Z"/><path class="cls-2" d="M149.69,143.11a6.59,6.59,0,1,0,6.59,6.58A6.59,6.59,0,0,0,149.69,143.11Z"/><path class="cls-3" d="M149.69,119.39A30.31,30.31,0,1,0,180,149.69,30.33,30.33,0,0,0,149.69,119.39Zm0,47.44a17.14,17.14,0,1,1,17.14-17.14A17.16,17.16,0,0,1,149.69,166.83Z"/><circle class="cls-3" cx="90" cy="90" r="12.52"/><circle class="cls-3" cx="53.14" cy="150.53" r="12.52"/><circle class="cls-3" cx="126.94" cy="29.51" r="12.52"/><path class="cls-4" d="M109,144.78H75.61a22.94,22.94,0,0,1,0,10.51h33.63a40.13,40.13,0,0,1-.45-6A38.88,38.88,0,0,1,109,144.78Z"/><path class="cls-4" d="M67.35,84.85H36.07C17,84.85.75,99.78.13,118.89A35.25,35.25,0,0,0,30.6,155a22.94,22.94,0,0,1-.54-4.94,22.61,22.61,0,0,1,.71-5.68,24.74,24.74,0,0,1-20.12-25.57c.69-13.22,12-23.39,25.26-23.39H67.54a23,23,0,0,1-.71-5.65,23.66,23.66,0,0,1,.52-4.87Z"/><path class="cls-4" d="M179.87,61.39a35.25,35.25,0,0,0-30.31-36.1,22.5,22.5,0,0,1,.38,4.13,22.89,22.89,0,0,1-.92,6.44,24.72,24.72,0,0,1,20.33,25.52c-.64,13.25-12,23.47-25.26,23.47H112.65a23.66,23.66,0,0,1,.52,4.87,23,23,0,0,1-.71,5.65h31.48C163,95.37,179.22,80.47,179.87,61.39Z"/><path class="cls-4" d="M104.59,35.44a22.92,22.92,0,0,1-.37-10.51H70.87a40.78,40.78,0,0,1,0,10.51Z"/></g></g></svg>