<svg xmlns="http://www.w3.org/2000/svg" viewBox="0 0 90 90"><defs><style>.cls-1{fill:#fff;}.cls-2{fill:#80cf00;}.cls-3{fill:#17214e;}</style></defs><g id="Calque_2" data-name="Calque 2"><g id="LANDING_V2" data-name="LANDING V2"><circle class="cls-1" cx="74.87" cy="74.8" r="9.75"/><circle class="cls-1" cx="15.12" cy="15.05" r="14.5"/><path class="cls-2" d="M15.15,30.31A15.16,15.16,0,1,0,0,15.15,15.18,15.18,0,0,0,15.15,30.31ZM9.1,8.12l3.72-3.73L23.58,15.15,12.82,25.91,9.1,22.18l7-7Z"/><path class="cls-3" d="M74.85,71.55a3.3,3.3,0,1,0,3.29,3.3A3.3,3.3,0,0,0,74.85,71.55Z"/><path class="cls-2" d="M74.85,59.69A15.16,15.16,0,1,0,90,74.85,15.18,15.18,0,0,0,74.85,59.69Zm0,23.72a8.57,8.57,0,1,1,8.56-8.56A8.57,8.57,0,0,1,74.85,83.41Z"/><circle class="cls-2" cx="45" cy="45" r="6.26"/><circle class="cls-2" cx="26.57" cy="75.26" r="6.26"/><circle class="cls-2" cx="63.47" cy="14.75" r="6.26"/><path class="cls-3" d="M54.52,72.39H37.8A11.34,11.34,0,0,1,38.11,75a11.47,11.47,0,0,1-.31,2.63H54.62a20.2,20.2,0,0,1-.23-3A20.54,20.54,0,0,1,54.52,72.39Z"/><path class="cls-3" d="M33.68,42.43H18a17.85,17.85,0,0,0-18,17,17.64,17.64,0,0,0,15.24,18A11.13,11.13,0,0,1,15,75a11.57,11.57,0,0,1,.35-2.84,12.35,12.35,0,0,1-10-12.78A12.54,12.54,0,0,1,18,47.68H33.77a11.51,11.51,0,0,1-.09-5.25Z"/><path class="cls-3" d="M89.94,30.69a17.63,17.63,0,0,0-15.16-18A11.69,11.69,0,0,1,75,14.71a11.39,11.39,0,0,1-.46,3.22A12.37,12.37,0,0,1,84.68,30.69,12.55,12.55,0,0,1,72,42.43H56.32a11.51,11.51,0,0,1-.09,5.25H72A17.85,17.85,0,0,0,89.94,30.69Z"/><path class="cls-3" d="M52.3,17.72a11.18,11.18,0,0,1-.41-3,11.82,11.82,0,0,1,.22-2.24H35.44a20.43,20.43,0,0,1,0,5.26Z"/></g></g></svg>